<svg xmlns="http://www.w3.org/2000/svg" xmlns:xlink="http://www.w3.org/1999/xlink" viewBox="0 0 709.5 379.57"><defs><style>.cls-1,.cls-14,.cls-15,.cls-16,.cls-46,.cls-48,.cls-58,.cls-60,.cls-7{fill:none;}.cls-2{isolation:isolate;}.cls-3{opacity:0.4;}.cls-4{fill:#cfeffe;}.cls-5{fill:#b0eeff;}.cls-6{opacity:0.25;}.cls-14,.cls-15,.cls-7{stroke:#fff;}.cls-14,.cls-15,.cls-60,.cls-7{stroke-linecap:round;stroke-linejoin:round;}.cls-7{stroke-width:0.84px;}.cls-8{fill:#282228;}.cls-9{fill:#0e60d8;}.cls-10{fill:#1a6cf3;}.cls-11,.cls-52{fill:#5275a0;}.cls-11,.cls-39,.cls-45,.cls-49,.cls-51{mix-blend-mode:multiply;}.cls-11,.cls-51{opacity:0.35;}.cls-12{fill:#fff;}.cls-13{fill:#d7f6ff;}.cls-14{stroke-width:1.21px;}.cls-15{stroke-width:1.01px;}.cls-16{stroke:#389fe5;stroke-width:1.62px;}.cls-16,.cls-46,.cls-48,.cls-58{stroke-miterlimit:10;}.cls-17,.cls-25,.cls-27,.cls-30{fill:#f35431;}.cls-18{fill:#d3361c;}.cls-19{fill:#fbb800;}.cls-20{clip-path:url(#clip-path);}.cls-21{fill:#f2446d;}.cls-22{fill:#2045ce;}.cls-23{fill:#e72d27;}.cls-24{fill:#fec752;}.cls-25,.cls-27{font-size:6.92px;}.cls-25,.cls-27,.cls-30{font-family:OpenSans;}.cls-26{letter-spacing:-0.07em;}.cls-27{letter-spacing:-0.03em;}.cls-28{letter-spacing:-0.01em;}.cls-29{letter-spacing:0em;}.cls-30{font-size:3.75px;}.cls-31{letter-spacing:-0.01em;}.cls-32{letter-spacing:-0.01em;}.cls-33{letter-spacing:0em;}.cls-34{letter-spacing:-0.01em;}.cls-35{letter-spacing:0.01em;}.cls-36{letter-spacing:0em;}.cls-37{letter-spacing:-0.01em;}.cls-38{clip-path:url(#clip-path-2);}.cls-39{fill:#7a520b;}.cls-39,.cls-45{opacity:0.3;}.cls-40{fill:#97c4f2;opacity:0.32;}.cls-41{fill:#ffdcc5;}.cls-42{fill:#fca265;}.cls-43{fill:#ffe1bd;}.cls-44{fill:#2c1f23;}.cls-46,.cls-48{stroke:#2c1f23;}.cls-46{stroke-width:0.74px;}.cls-47{fill:#d8d8d8;}.cls-48{stroke-width:1.49px;}.cls-49{opacity:0.5;}.cls-50{fill:#feaf84;}.cls-53{fill:#ff7c48;}.cls-54{fill:#8fcaf2;}.cls-55{fill:#b1dafc;}.cls-56{fill:#f29d77;}.cls-57{fill:#9ddbf4;}.cls-58{stroke:#9ddbf4;}.cls-59{opacity:0.66;}.cls-60{stroke:#eaa221;stroke-width:1.91px;}</style><clipPath id="clip-path" transform="translate(108.35)"><rect class="cls-1" x="137.83" y="133.33" width="151.57" height="202.22" transform="translate(448.05 20.82) rotate(90)"/></clipPath><clipPath id="clip-path-2" transform="translate(108.35)"><rect class="cls-1" x="112.08" y="146.65" width="218.24" height="163.57"/></clipPath></defs><g class="cls-2"><g id="Layer_2" data-name="Layer 2"><g id="OBJECT"><g class="cls-3"><path class="cls-4" d="M214.83,72.73V5.9L182.39,55.44v82.37H161.48v-118h-5.31L141,0,125.82,19.76h-5.23V179.07H43.68v86.78H265.52V72.73Zm-58.66,42.36H125.91v-4.32h30.26Zm0-8.62H125.91v-4.32h30.26Zm0-8.62H125.91V93.54h30.26Zm0-8.62H125.91V84.92h30.26Zm0-8.61H125.91V76.3h30.26Zm0-8.62H125.91V67.68h30.26Zm0-8.62H125.91V59.07h30.26Zm0-8.62H125.91V50.45h30.26Zm0-8.62H125.91V41.83h30.26Zm0-8.61H125.91V33.21h30.26Zm0-8.62H125.91V24.6h30.26Zm54.55,209.93h-3.14V26.75l3.14-4.81Z" transform="translate(108.35)"/><path class="cls-4" d="M443.94,72.73V5.9L411.5,55.44v82.37H390.59v-118h-5.31L370.14,0,354.93,19.76H349.7V179.07H272.79v86.78H494.62V72.73Zm-58.66,42.36H355v-4.32h30.27Zm0-8.62H355v-4.32h30.27Zm0-8.62H355V93.54h30.27Zm0-8.62H355V84.92h30.27Zm0-8.61H355V76.3h30.27Zm0-8.62H355V67.68h30.27Zm0-8.62H355V59.07h30.27Zm0-8.62H355V50.45h30.27Zm0-8.62H355V41.83h30.27Zm0-8.61H355V33.21h30.27Zm0-8.62H355V24.6h30.27Zm54.55,209.93h-3.15V26.75l3.15-4.81Z" transform="translate(108.35)"/><path class="cls-4" d="M361.14,185V34h-4.87V18.67H318.58V34h-4.84V223.84H278.37v-86H226.86V250.69H202V48.55H151.24v155.3h-6V111.41h-9.18L110.52,92.53v18.88h-5.59V225.58H92.5V71H79.94V16.72H78.22V71H65.66V266.18H392.89V185ZM89.48,170.31H68.75V167H89.48Zm0-7.77H68.75v-3.36H89.48Zm0-7.79H68.75v-3.36H89.48Zm0-7.77H68.75v-3.36H89.48Zm0-7.78H68.75v-3.36H89.48Zm0-7.78H68.75v-3.36H89.48Zm0-7.78H68.75v-3.36H89.48Zm0-7.77H68.75v-3.36H89.48Zm0-7.79H68.75v-3.36H89.48Zm0-7.78H68.75V96.94H89.48Zm0-7.77H68.75V89.17H89.48Zm0-7.79H68.75V81.38H89.48Zm0-7.77H68.75V73.61H89.48Zm72.69,46.3H156v-8.61h6.17Zm0-14.36H156v-8.63h6.17Zm0-14.38H156V85.92h6.17Zm0-14.36H156V71.54h6.17Zm0-14.38H156V57.17h6.17Zm11.72,57.48h-6.16v-8.61h6.16Zm0-14.36h-6.16v-8.63h6.16Zm0-14.38h-6.16V85.92h6.16Zm0-14.36h-6.16V71.54h6.16Zm0-14.38h-6.16V57.17h6.16Zm11.73,57.48h-6.17v-8.61h6.17Zm0-14.36h-6.17v-8.63h6.17Zm0-14.38h-6.17V85.92h6.17Zm0-14.36h-6.17V71.54h6.17Zm0-14.38h-6.17V57.17h6.17Zm11.73,57.48h-6.17v-8.61h6.17Zm0-14.36h-6.17v-8.63h6.17Zm0-14.38h-6.17V85.92h6.17Zm0-14.36h-6.17V71.54h6.17ZM366,256.08h-6.41v-9H366Zm0-17.94h-6.41v-9H366Zm0-17.95h-6.41v-9H366Zm0-17.94h-6.41v-9H366Zm11.9,53.83h-6.41v-9h6.41Zm0-17.94h-6.41v-9h6.41Zm0-17.95h-6.41v-9h6.41Zm0-17.94h-6.41v-9h6.41Zm11.9,53.83h-6.42v-9h6.42Zm0-17.94h-6.42v-9h6.42Zm0-17.95h-6.42v-9h6.42Zm0-17.94h-6.42v-9h6.42Z" transform="translate(108.35)"/><path class="cls-4" d="M511.65,169V34h-4.87V18.67H469.09V34h-4.84V223.84H428.88v-86H377.37V250.69H352.48V48.55H301.75v155.3h-6V111.41h-9.17L261,92.53v18.88h-5.6V225.58H243V71H230.45V16.72h-1.72V71H216.16V266.18H543.39V169ZM240,170.31H219.25V167H240Zm0-7.77H219.25v-3.36H240Zm0-7.79H219.25v-3.36H240Zm0-7.77H219.25v-3.36H240Zm0-7.78H219.25v-3.36H240Zm0-7.78H219.25v-3.36H240Zm0-7.78H219.25v-3.36H240Zm0-7.77H219.25v-3.36H240Zm0-7.79H219.25v-3.36H240Zm0-7.78H219.25V96.94H240Zm0-7.77H219.25V89.17H240Zm0-7.79H219.25V81.38H240ZM240,77H219.25V73.61H240Zm72.7,46.3H306.5v-8.61h6.18Zm0-14.36H306.5v-8.63h6.18Zm0-14.38H306.5V85.92h6.18Zm0-14.36H306.5V71.54h6.18Zm0-14.38H306.5V57.17h6.18Zm11.72,57.48h-6.17v-8.61h6.17Zm0-14.36h-6.17v-8.63h6.17Zm0-14.38h-6.17V85.92h6.17Zm0-14.36h-6.17V71.54h6.17Zm0-14.38h-6.17V57.17h6.17Zm11.73,57.48H330v-8.61h6.17Zm0-14.36H330v-8.63h6.17Zm0-14.38H330V85.92h6.17Zm0-14.36H330V71.54h6.17Zm0-14.38H330V57.17h6.17Zm11.72,57.48h-6.16v-8.61h6.16Zm0-14.36h-6.16v-8.63h6.16Zm0-14.38h-6.16V85.92h6.16Zm0-14.36h-6.16V71.54h6.16ZM519.76,232.29h-5.54v-7.73h5.54Zm0-15.49h-5.54v-7.73h5.54Zm0-15.49h-5.54v-7.73h5.54Zm0-15.49h-5.54v-7.73h5.54ZM530,232.29H524.5v-7.73H530Zm0-15.49H524.5v-7.73H530Zm0-15.49H524.5v-7.73H530Zm0-15.49H524.5v-7.73H530Zm10.28,46.47h-5.54v-7.73h5.54Zm0-15.49h-5.54v-7.73h5.54Zm0-15.49h-5.54v-7.73h5.54Zm0-15.49h-5.54v-7.73h5.54Z" transform="translate(108.35)"/><rect class="cls-4" x="651.74" y="197.77" width="21.98" height="103.92"/></g><path class="cls-5" d="M77.37,270.67c-2.92-2.37-5.94-4.86-7.47-8.29-1.43-3.18-3.21-6.61-3.84-10a28.12,28.12,0,0,0-3.83-9.65c-5.74-9.3-9.58-6.72-10.85-5.42s-1.39,3.18-.54,5.87c.68,2.16,5.68,11.63,1.91,11.3-4.37-.39-7.93-10.87-9.75-14.14-2.72-4.89-6.81-9.69-12.06-11.9C28.35,227.32,25,227,23,229a6.49,6.49,0,0,0-1.57,4.66c.06,5.07,3.28,9.21,6.54,12.78,1.36,1.5,10.27,7.48,5,8.46-1.26.23-13.94-4-12.06,4.36.66,3,4.86,4.75,11.19,6.61,4,1.17,17.7,3,18.22,6.33s-7.7.62-4.87,6.19c1.58,3.13,6.72,4,10.07,4.17,1.6.09,3.21-.13,4.79.07,1.89.24,4.53,1.5,4,3.82-.24,1-1.12,1.8-1.33,2.82a3,3,0,0,0,1.18,2.78,6.92,6.92,0,0,0,2.92,1.2c6.64,1.42,13.67-.46,19.52-3.93s10.65-8.42,15.1-13.55" transform="translate(108.35)"/><g class="cls-6"><path class="cls-7" d="M28.07,233.41s18.7,31.88,47,45.87" transform="translate(108.35)"/><path class="cls-7" d="M26.57,259.32s14.8,4.94,24.8,2.87" transform="translate(108.35)"/><path class="cls-7" d="M54.64,240.93c2.51,5.16,8.3,20,5.77,29.06" transform="translate(108.35)"/><path class="cls-7" d="M50.17,278s5.95,2.33,20.61-1.06" transform="translate(108.35)"/><path class="cls-7" d="M66.11,289.27A23.67,23.67,0,0,0,79,281.88" transform="translate(108.35)"/></g><rect class="cls-8" x="60.81" y="236.82" width="7.59" height="73.72" transform="translate(237.55 547.37) rotate(180)"/><rect class="cls-9" x="63.06" y="236.82" width="7.59" height="73.72" transform="translate(242.06 547.37) rotate(180)"/><path class="cls-10" d="M102.49,180.37h0a21.17,21.17,0,0,1,21.17,21.17v33.91a7.27,7.27,0,0,1-7.27,7.27H31.29V180.37Z" transform="translate(108.35)"/><path class="cls-11" d="M31.29,239.14v3.58h85.1a7.26,7.26,0,0,0,7.26-7.27v-3.58a7.27,7.27,0,0,1-7.26,7.27Z" transform="translate(108.35)"/><path class="cls-8" d="M15.7,242.72H46.14a6.32,6.32,0,0,0,6.32-6.32V201.54a21.17,21.17,0,0,0-21.17-21.17h0a21.17,21.17,0,0,0-21.17,21.17v35.6A5.58,5.58,0,0,0,15.7,242.72Z" transform="translate(108.35)"/><rect class="cls-10" x="20.31" y="198.17" width="21.96" height="3.95" transform="translate(170.93 400.29) rotate(180)"/><path class="cls-8" d="M68.74,203.54V171.72H74.3a1.34,1.34,0,0,0,1.33-1.34v-2.71a1.33,1.33,0,0,0-1.33-1.33H67.16a1.43,1.43,0,0,0-1.43,1.43v35.77Z" transform="translate(108.35)"/><path class="cls-8" d="M62.31,202.86a5.11,5.11,0,1,0,5.1-5.11A5.1,5.1,0,0,0,62.31,202.86Z" transform="translate(108.35)"/><path class="cls-12" d="M64.83,202.86a2.58,2.58,0,1,0,2.58-2.58A2.59,2.59,0,0,0,64.83,202.86Z" transform="translate(108.35)"/><path class="cls-5" d="M114.36,248.5c.74-3.69,1.55-7.52,3.88-10.47,2.16-2.73,4.38-5.9,7.12-8a28.44,28.44,0,0,0,6.78-7.87c5.57-9.39,1.51-11.6-.23-12.12s-3.46.24-5.45,2.23c-1.6,1.61-7.68,10.43-9.13,6.93-1.69-4,6-12.06,8-15.18,3.07-4.68,5.44-10.53,5-16.21-.23-2.8-1.53-5.9-4.22-6.71a6.5,6.5,0,0,0-4.85.77c-4.46,2.4-6.64,7.18-8.3,11.72-.69,1.9-1.87,12.56-5.17,8.35-.79-1-2.88-14.22-9.46-8.66-2.32,1.95-2,6.51-.67,13,.8,4,5.55,17.06,2.83,19.08s-4.12-6.55-7.75-1.46c-2,2.86-.39,7.8,1,10.86.65,1.46,1.59,2.79,2.15,4.29.66,1.77.77,4.7-1.54,5.29-1,.26-2.11-.17-3.11.12a3,3,0,0,0-1.92,2.34,6.86,6.86,0,0,0,.29,3.14c1.82,6.54,6.74,11.91,12.52,15.48s12.4,5.54,19,7.11" transform="translate(108.35)"/><g class="cls-6"><path class="cls-7" d="M124.54,187.54S105,218.89,105.67,250.46" transform="translate(108.35)"/><path class="cls-7" d="M100.89,198.22s2.47,15.41,8.94,23.31" transform="translate(108.35)"/><path class="cls-7" d="M130.19,214.58c-3.42,4.62-13.9,16.62-23.08,18.57" transform="translate(108.35)"/><path class="cls-7" d="M95.23,227.81s.69,6.35,10.49,17.77" transform="translate(108.35)"/><path class="cls-7" d="M92.65,247.13a23.68,23.68,0,0,0,12.51,8" transform="translate(108.35)"/></g><path class="cls-13" d="M107,253.55c-1.21-6.87-20.41-49.74-42.64-38.26-13.2,6.82-10.83,31.92,9.79,50.89-4-3.91-8.72-8.35-14.24-9.45-3-.59-6.64.78-8.87,2.85-2,1.83-2.57,4.73-2.67,7.44a29.29,29.29,0,0,0,13.05,25.05c-4.56-2.55-8.51-5.74-13.72-6.18-1.69-.15-4.56.82-5.34,2.33s-.79,7.78,9.25,12.37c-40.93-7.76-43.32,9.69-28.6,9.69H143.62" transform="translate(108.35)"/><path class="cls-5" d="M120.4,276.93c-.72-4-8.14-29.38-21.18-22.65-7.74,4-6.35,18.73,5.74,29.85-2.37-2.3-5.11-4.9-8.35-5.54a6.44,6.44,0,0,0-5.2,1.67,6.09,6.09,0,0,0-1.57,4.36,17.18,17.18,0,0,0,7.66,14.69c-2.68-1.49-5-3.36-8-3.62a3.73,3.73,0,0,0-3.13,1.36c-.5,1-.47,4.57,5.42,7.26C67.74,299.76,66.34,310,75,310h57" transform="translate(108.35)"/><path class="cls-5" d="M504.9,267.41c4.48-3.13,9.12-6.44,11.69-11.25,2.39-4.46,5.33-9.26,6.59-14.16a41,41,0,0,1,6.56-13.59c9.27-12.88,14.58-8.75,16.28-6.73s1.69,4.75.18,8.56c-1.21,3.06-9.44,16.28-3.93,16.19,6.38-.11,12.61-14.94,15.58-19.49,4.45-6.81,10.88-13.36,18.72-16,3.87-1.31,8.75-1.38,11.4,1.73a9.46,9.46,0,0,1,1.78,6.92c-.6,7.33-5.71,13-10.8,17.86-2.13,2-15.65,9.78-8.12,11.74,1.8.46,20.62-4.42,17,7.57-1.26,4.22-7.54,6.38-16.91,8.43-5.85,1.28-26,2.5-27.06,7.3s11.1,1.68,6.42,9.47c-2.62,4.37-10.15,5.05-15,5-2.33,0-4.64-.51-7-.38-2.75.15-6.71,1.7-6.16,5.13.25,1.49,1.45,2.71,1.64,4.22a4.31,4.31,0,0,1-2,3.91,10,10,0,0,1-4.35,1.43c-9.78,1.38-19.78-2.07-27.89-7.7s-14.58-13.31-20.5-21.2" transform="translate(108.35)"/><g class="cls-6"><path class="cls-14" d="M580.22,218.46s-30.4,44.3-72.89,61.66" transform="translate(108.35)"/><path class="cls-14" d="M579.72,256.18s-22,5.65-36.26,1.61" transform="translate(108.35)"/><path class="cls-14" d="M540.92,226.63c-4.18,7.23-14.1,28.16-11.36,41.54" transform="translate(108.35)"/><path class="cls-14" d="M543.58,280.89s-8.87,2.76-29.78-3.66" transform="translate(108.35)"/><path class="cls-14" d="M519.31,295.54s-11.07-2.67-17.88-12" transform="translate(108.35)"/></g><path class="cls-5" d="M444.34,198.43c1.34-4.34,2.69-8.87,1.91-13.34-.71-4.15-1.23-8.79-2.91-12.64a33.92,33.92,0,0,1-2.65-12.26c-.51-13.18,5.08-13.18,7.23-12.73s3.53,2.25,4.49,5.52c.77,2.62,2.13,15.49,5.7,12.61,4.12-3.33.62-16.23.24-20.73-.56-6.73.3-14.31,4.08-20.06,1.87-2.84,5-5.38,8.35-4.69a7.86,7.86,0,0,1,4.71,3.62c3.35,5.12,2.91,11.45,2.05,17.22-.36,2.41-5.26,14.41.67,11.84,1.42-.61,11.25-13.43,15-3.74,1.33,3.41-1.68,8-6.77,14.16-3.18,3.83-15.73,14.91-14,18.62s8.13-4.58,9,2.92c.51,4.2-4.07,8.5-7.29,11-1.54,1.17-3.3,2-4.76,3.3-1.72,1.51-3.53,4.55-1.41,6.51.92.85,2.33,1,3.23,1.92A3.61,3.61,0,0,1,472,211a8.4,8.4,0,0,1-2.12,3.16c-5.7,5.9-14,8.75-22.21,9.21s-16.35-1.27-24.27-3.42" transform="translate(108.35)"/><g class="cls-6"><path class="cls-15" d="M468.68,127.88s2.71,44.55-16.25,77.64" transform="translate(108.35)"/><path class="cls-15" d="M487.62,152.84s-11.5,14.93-22.93,19.59" transform="translate(108.35)"/><path class="cls-15" d="M447.1,153.31c1,6.87,5.16,25.65,13.78,33" transform="translate(108.35)"/><path class="cls-15" d="M476.57,187.5s-4.4,6.34-21.38,12.82" transform="translate(108.35)"/><path class="cls-15" d="M468.16,209.5s-8.62,3.91-17.87,1.25" transform="translate(108.35)"/></g><path class="cls-13" d="M436.39,244.5c1.8-8.4,32.4-65.29,65.39-51.26,19.59,8.34,16.07,39-14.54,62.21,6-4.78,12.94-10.21,21.14-11.55a18.74,18.74,0,0,1,13.17,3.48c3,2.24,3.81,5.79,4,9.09.5,12-7.12,24.07-19.36,30.63,6.77-3.12,12.63-7,20.36-7.56,2.51-.18,6.76,1,7.92,2.84,1.27,2,1.18,9.52-13.72,15.13,60.74-9.49,64.28,11.84,42.45,11.84H418.86" transform="translate(108.35)"/><line class="cls-16" x1="108.35" y1="309.64" x2="709.5" y2="309.64"/><path class="cls-17" d="M99.49,92.45l-1.59.34h0a.62.62,0,0,1-.26-1.21l1.65-.36a.62.62,0,0,1,.74.47.61.61,0,0,1-.47.74h0Z" transform="translate(108.35)"/><path class="cls-17" d="M95.57,93.46c-1,.35-2,.74-3,1.18a.6.6,0,0,1-.79-.31.59.59,0,0,1,.3-.78c1-.46,2.06-.87,3.12-1.24a.61.61,0,1,1,.4,1.15Z" transform="translate(108.35)"/><path class="cls-17" d="M90.35,95.7q-1.44.75-2.82,1.62a.58.58,0,1,1-.62-1c.94-.6,1.9-1.16,2.89-1.69a.59.59,0,0,1,.8.25.58.58,0,0,1-.25.79Z" transform="translate(108.35)"/><path class="cls-17" d="M85.5,98.68c-.88.64-1.73,1.31-2.55,2a.55.55,0,0,1-.78,0,.56.56,0,0,1,0-.79q1.26-1.11,2.61-2.1a.58.58,0,0,1,.8.12.57.57,0,0,1-.12.8Z" transform="translate(108.35)"/><path class="cls-17" d="M81.17,102.36A30.72,30.72,0,0,0,79,104.78a.53.53,0,0,1-.76.09.54.54,0,0,1-.09-.75,29.76,29.76,0,0,1,2.22-2.53.55.55,0,0,1,.78,0,.56.56,0,0,1,0,.78Z" transform="translate(108.35)"/><path class="cls-17" d="M77.61,106.76a20.27,20.27,0,0,0-1.52,2.83.51.51,0,0,1-.68.27.52.52,0,0,1-.27-.68,19.85,19.85,0,0,1,1.58-3,.53.53,0,1,1,.89.56Z" transform="translate(108.35)"/><path class="cls-17" d="M75.3,111.86a13.88,13.88,0,0,0-.49,3.14.5.5,0,0,1-1,0,15.33,15.33,0,0,1,.5-3.38.51.51,0,0,1,1,.26Z" transform="translate(108.35)"/><path class="cls-17" d="M74.93,117.38a13.38,13.38,0,0,0,.83,3.08.49.49,0,0,1-.27.62.48.48,0,0,1-.63-.27,14.84,14.84,0,0,1-.9-3.29.49.49,0,0,1,1-.14Z" transform="translate(108.35)"/><path class="cls-17" d="M76.81,122.61a19.3,19.3,0,0,0,1.87,2.63.46.46,0,1,1-.7.59,19.89,19.89,0,0,1-2-2.74.47.47,0,0,1,.16-.64.46.46,0,0,1,.65.16Z" transform="translate(108.35)"/><path class="cls-17" d="M80.34,127a21.63,21.63,0,0,0,2.5,2.07.44.44,0,0,1-.51.72,23.31,23.31,0,0,1-2.61-2.13.45.45,0,1,1,.62-.66Z" transform="translate(108.35)"/><path class="cls-17" d="M84.89,130.36a21.1,21.1,0,0,0,2.93,1.37.42.42,0,1,1-.29.79,22.83,22.83,0,0,1-3.06-1.4.43.43,0,0,1-.17-.59.44.44,0,0,1,.59-.17Z" transform="translate(108.35)"/><path class="cls-17" d="M90.14,132.47a20.29,20.29,0,0,0,3.19.56.4.4,0,0,1-.08.8,23.13,23.13,0,0,1-3.31-.57.4.4,0,0,1-.3-.49.41.41,0,0,1,.5-.3Z" transform="translate(108.35)"/><path class="cls-17" d="M95.76,133.14a19.08,19.08,0,0,0,3.21-.32.38.38,0,1,1,.15.74,20,20,0,0,1-3.35.36.4.4,0,0,1-.4-.38.39.39,0,0,1,.38-.4Z" transform="translate(108.35)"/><path class="cls-17" d="M101.28,132.15A8.66,8.66,0,0,0,104,130.5a.36.36,0,1,1,.49.52,9.23,9.23,0,0,1-2.89,1.82.39.39,0,0,1-.49-.21.38.38,0,0,1,.21-.48Z" transform="translate(108.35)"/><path class="cls-17" d="M105.36,128.62a8,8,0,0,0,.76-3.05.34.34,0,0,1,.36-.32.34.34,0,0,1,.32.36,8.58,8.58,0,0,1-.81,3.32.34.34,0,0,1-.47.16.34.34,0,0,1-.16-.47Z" transform="translate(108.35)"/><path class="cls-17" d="M105.94,123.21a6.31,6.31,0,0,0-1.47-2.74.32.32,0,0,1,.47-.43,6.94,6.94,0,0,1,1.64,3,.32.32,0,0,1-.23.4.34.34,0,0,1-.41-.23Z" transform="translate(108.35)"/><path class="cls-17" d="M102.63,119a12.48,12.48,0,0,0-3-1.25.3.3,0,0,1-.21-.37.29.29,0,0,1,.37-.2,12.47,12.47,0,0,1,3.12,1.29.31.31,0,1,1-.32.53Z" transform="translate(108.35)"/><path class="cls-17" d="M97.28,117.25a20.7,20.7,0,0,0-3.25-.16.28.28,0,0,1-.29-.27.29.29,0,0,1,.27-.29,20.82,20.82,0,0,1,3.35.14.28.28,0,0,1,.25.32.29.29,0,0,1-.32.26Z" transform="translate(108.35)"/><path class="cls-17" d="M91.59,117.29a26.61,26.61,0,0,0-3.2.63.26.26,0,0,1-.32-.18.26.26,0,0,1,.18-.32,28.3,28.3,0,0,1,3.27-.67.28.28,0,0,1,.31.24.28.28,0,0,1-.24.3Z" transform="translate(108.35)"/><path class="cls-17" d="M86,118.65a25.63,25.63,0,0,0-3,1.3.24.24,0,0,1-.32-.11.24.24,0,0,1,.1-.32,26.62,26.62,0,0,1,3.05-1.34.25.25,0,0,1,.18.47Z" transform="translate(108.35)"/><path class="cls-17" d="M80.91,121.16a24.89,24.89,0,0,0-2.65,1.93.22.22,0,0,1-.28-.34,24.7,24.7,0,0,1,2.68-2,.23.23,0,0,1,.25.39Z" transform="translate(108.35)"/><path class="cls-17" d="M76.46,124.75a25.13,25.13,0,0,0-2.11,2.5.2.2,0,0,1-.28,0,.2.2,0,0,1,0-.28,23.7,23.7,0,0,1,2.13-2.56.21.21,0,1,1,.3.29Z" transform="translate(108.35)"/><path class="cls-17" d="M73,129.31a21.68,21.68,0,0,0-1.43,2.95.18.18,0,0,1-.34-.13,25.13,25.13,0,0,1,1.43-3,.19.19,0,0,1,.26-.07.19.19,0,0,1,.08.26Z" transform="translate(108.35)"/><path class="cls-17" d="M70.8,134.58a23.89,23.89,0,0,0-.7,3.21.15.15,0,0,1-.18.13.16.16,0,0,1-.14-.18,28,28,0,0,1,.68-3.25.19.19,0,0,1,.22-.12.18.18,0,0,1,.12.21Z" transform="translate(108.35)"/><path class="cls-17" d="M69.83,140.24a25.64,25.64,0,0,0,0,3.28.14.14,0,0,1-.28,0,24.53,24.53,0,0,1,0-3.32.16.16,0,0,1,.16-.15.15.15,0,0,1,.14.16h0Z" transform="translate(108.35)"/><path class="cls-17" d="M70.2,146a16.08,16.08,0,0,0,1,3.09.12.12,0,0,1-.06.16.12.12,0,0,1-.16-.06A17.06,17.06,0,0,1,69.94,146a.13.13,0,0,1,.1-.16.13.13,0,0,1,.16.09Z" transform="translate(108.35)"/><path class="cls-17" d="M72.44,151.2a19.34,19.34,0,0,0,2,2.57.1.1,0,0,1,0,.14.09.09,0,0,1-.13,0,18.35,18.35,0,0,1-2.08-2.58.11.11,0,0,1,0-.16.1.1,0,0,1,.15,0Z" transform="translate(108.35)"/><path class="cls-17" d="M76.27,155.46a28.22,28.22,0,0,0,2.65,1.95.08.08,0,0,1,0,.11.09.09,0,0,1-.11,0,25.44,25.44,0,0,1-2.68-1.95.09.09,0,1,1,.11-.13Z" transform="translate(108.35)"/><path class="cls-17" d="M81.05,158.66c1,.53,2,1,3,1.44a.05.05,0,0,1,0,.07s0,.05-.08,0c-1-.43-2-.9-3-1.41a.08.08,0,0,1,0-.1s.06,0,.09,0Z" transform="translate(108.35)"/><path class="cls-17" d="M86.32,161c1,.38,2.07.72,3.13,1a0,0,0,0,1,0,0s0,0,0,0c-1.06-.3-2.11-.64-3.15-1a.08.08,0,0,1,0-.07.06.06,0,0,1,.07,0Z" transform="translate(108.35)"/><path class="cls-17" d="M91.84,162.7l3.23.7v0s0,0,0,0l-3.23-.68s0,0,0,0,0,0,0,0Z" transform="translate(108.35)"/><polygon class="cls-17" points="205.86 163.81 207.51 164.02 205.86 163.83 205.86 163.82 205.86 163.81 205.86 163.81"/><path class="cls-18" d="M114.24,74.34c.12-.14-10.31,2.06-10.31,2.06l-3,15.16L109,82.33l11.77,1.88,21-9.08Z" transform="translate(108.35)"/><polygon class="cls-17" points="250.17 75.13 209.3 91.56 217.37 82.33 250.17 75.13"/><polygon class="cls-17" points="250.17 75.13 206.17 69.03 212.28 76.4 250.17 75.13 217.37 82.33 227.62 95.25 250.17 75.13"/><rect class="cls-19" x="220.86" y="158.66" width="202.21" height="151.56"/><g class="cls-20"><rect class="cls-21" x="191.12" y="253.59" width="337.2" height="12.1" transform="translate(28.15 316.99) rotate(-43.25)"/><line class="cls-22" x1="269.45" y1="375.16" x2="515.07" y2="144.13"/><rect class="cls-9" x="115.31" y="253.59" width="337.2" height="12.1" transform="translate(7.56 265.05) rotate(-43.25)"/><line class="cls-22" x1="193.65" y1="375.16" x2="439.27" y2="144.13"/><rect class="cls-23" x="39.51" y="253.59" width="337.2" height="12.1" transform="translate(-13.02 213.11) rotate(-43.25)"/><line class="cls-22" x1="117.85" y1="375.16" x2="363.47" y2="144.13"/><rect class="cls-9" x="-36.29" y="253.59" width="337.2" height="12.1" transform="translate(-33.61 161.18) rotate(-43.25)"/><line class="cls-22" x1="42.05" y1="375.16" x2="287.67" y2="144.13"/><rect class="cls-9" x="-112.09" y="253.59" width="337.2" height="12.1" transform="translate(-54.2 109.24) rotate(-43.25)"/><rect class="cls-10" x="153.22" y="253.59" width="337.2" height="12.1" transform="translate(17.86 291.02) rotate(-43.25)"/><rect class="cls-10" x="77.41" y="253.59" width="337.2" height="12.1" transform="translate(-2.73 239.08) rotate(-43.25)"/><rect class="cls-23" x="1.61" y="253.59" width="337.2" height="12.1" transform="translate(-23.32 187.15) rotate(-43.25)"/><rect class="cls-23" x="-74.19" y="253.59" width="337.2" height="12.1" transform="translate(-43.91 135.21) rotate(-43.25)"/><rect class="cls-23" x="-149.99" y="253.59" width="337.2" height="12.1" transform="translate(-64.5 83.27) rotate(-43.25)"/></g><rect class="cls-24" x="226.62" y="164.42" width="190.69" height="140.04"/><rect class="cls-17" x="349.89" y="266.38" width="54.74" height="0.58"/><rect class="cls-17" x="349.89" y="277.69" width="54.74" height="0.58"/><rect class="cls-17" x="349.89" y="288.99" width="54.74" height="0.58"/><text class="cls-25" transform="translate(349.89 260.73)"><tspan class="cls-26">T</tspan><tspan x="2.95" y="0">o:</tspan></text><rect class="cls-17" x="239.3" y="191.18" width="83.92" height="0.58"/><rect class="cls-17" x="239.3" y="202.48" width="83.92" height="0.58"/><text class="cls-27" transform="translate(239.3 185.53)">F<tspan class="cls-28" x="3.19" y="0">r</tspan><tspan class="cls-29" x="5.38" y="0">om:</tspan></text><text class="cls-30" transform="translate(239.3 279.07)"><tspan class="cls-31">L</tspan><tspan x="1.72" y="0">o</tspan><tspan class="cls-32" x="3.77" y="0">r</tspan><tspan x="4.96" y="0">em ipsum dolor sit ame</tspan><tspan class="cls-33" x="41.56" y="0">t</tspan><tspan x="42.79" y="0">, </tspan><tspan class="cls-34" x="44.36" y="0">c</tspan><tspan x="46.02" y="0">onse</tspan><tspan class="cls-35" x="53.51" y="0">c</tspan><tspan class="cls-34" x="55.24" y="0">t</tspan><tspan x="56.46" y="0">es</tspan><tspan x="0" y="4.5">adipiscing eli</tspan><tspan class="cls-33" x="20.45" y="4.5">t</tspan><tspan x="21.68" y="4.5">, sed do eiusmod </tspan><tspan class="cls-34" x="48.87" y="4.5">t</tspan><tspan x="50.08" y="4.5">empor incididu</tspan><tspan class="cls-36" x="73.97" y="4.5">n</tspan><tspan x="76.03" y="4.5">t </tspan><tspan x="0" y="8.99">ut labo</tspan><tspan class="cls-32" x="10.98" y="8.99">r</tspan><tspan x="12.17" y="8.99">e et dolo</tspan><tspan class="cls-37" x="25.86" y="8.99">r</tspan><tspan x="27.05" y="8.99">e mansi.</tspan></text><g class="cls-38"><path class="cls-5" d="M110.8,249.18c.75-3.68,5.11-8.2,7.44-11.15,2.16-2.73,4.38-5.9,7.12-8a28.44,28.44,0,0,0,6.78-7.87c5.57-9.39,1.51-11.6-.23-12.12s-3.46.24-5.45,2.23c-1.6,1.61-7.68,10.43-9.13,6.93-1.69-4,6-12.06,8-15.18,3.07-4.68,5.44-10.53,5-16.21-.23-2.8-1.53-5.9-4.22-6.71a6.5,6.5,0,0,0-4.85.77c-4.46,2.4-6.64,7.18-8.3,11.72-.69,1.9-1.87,12.56-5.17,8.35-.79-1-2.88-14.22-9.46-8.66-2.32,1.95-2,6.51-.67,13,.8,4,5.55,17.06,2.83,19.08s-4.12-6.55-7.75-1.46c-2,2.86-.39,7.8,1,10.86.65,1.46,1.59,2.79,2.15,4.29.66,1.77.77,4.7-1.54,5.29-1,.26-2.11-.17-3.11.12a3,3,0,0,0-1.92,2.34,6.86,6.86,0,0,0,.29,3.14c1.82,6.54,6.74,11.91,12.52,15.48s2.45,4.47,9.06,6" transform="translate(108.35)"/><g class="cls-6"><path class="cls-7" d="M124.54,187.54S105,218.89,105.67,250.46" transform="translate(108.35)"/><path class="cls-7" d="M100.89,198.22s2.47,15.41,8.94,23.31" transform="translate(108.35)"/><path class="cls-7" d="M130.19,214.58c-3.42,4.62-13.9,16.62-23.08,18.57" transform="translate(108.35)"/><path class="cls-7" d="M95.23,227.81s.69,6.35,10.49,17.77" transform="translate(108.35)"/><path class="cls-7" d="M92.65,247.13a23.68,23.68,0,0,0,12.51,8" transform="translate(108.35)"/></g></g><path class="cls-39" d="M208.34,310.31H115.53a6.9,6.9,0,0,1,3.21-7.48,7,7,0,0,1,3.47-1,86.2,86.2,0,0,1,13.84.74v-.19c-3.86-3.1-7.65-7-7.83-10.18a37.19,37.19,0,0,1,.66-7.69c1-6,2.75-12.27,2.88-12.73-.48-.3-.72-.49-.72-.49s5.14-25.23,24.88-25.17l.14.29c1.48-.93,1.85-3.39,1.92-4.55a7.84,7.84,0,0,1-2.93-3.18c-.9,0-2.42-.21-3.1-1.3,0,0-3.19,0-3.58-2.65a5,5,0,0,1,1-4,3.9,3.9,0,0,1-2.94-2.7,3.18,3.18,0,0,1,1.5-3.68,3.37,3.37,0,0,1,0-5c1.5-1.68,3.7-.32,3.7-.32a3.16,3.16,0,0,1,2.8-3.85c3.7-.55,4,2.59,4,2.59s0-4.56,4.79-3.58c3.68.76,3.27,3.73,3.18,4.3.23-.57,1.59-3.31,4.9-1.54a3.6,3.6,0,0,1,1.6,4.81,3.25,3.25,0,0,1,3.4,2.78c.88,4.42-1.73,5.32-1.73,5.32a3.45,3.45,0,0,1,1.71,3.44,4.23,4.23,0,0,1-3.21,3.56,4.77,4.77,0,0,1-4.3,2,7.47,7.47,0,0,1-3.44,3.25c0,.2,0,.39,0,.6a5.3,5.3,0,0,0,1.07,2.92,2.58,2.58,0,0,0,1,.7,1.45,1.45,0,0,0,.06-.19c19.36-.21,25.3,25.38,25.3,25.38a3.8,3.8,0,0,1-.47.22s1.83,6.5,2.88,12.73a.12.12,0,0,0,0,.08v.06a38,38,0,0,1,.67,7.63s0,.07,0,.11a6.79,6.79,0,0,1-.2,1c0,.11-.08.25-.13.38s-.22.55-.35.84l-.18.37c-.21.37-.45.76-.72,1.15-.06.1-.12.17-.18.27-.23.31-.48.64-.75,1-.1.13-.22.27-.34.4-.25.3-.52.59-.81.88l-.29.33c-.37.39-.76.76-1.17,1.15l-.41.35c-.29.27-.59.53-.88.78l-.5.45c-.3.23-.59.46-.88.72s-.29.23-.45.35a84.66,84.66,0,0,1,14.08-.72,7,7,0,0,1,3.17.87A6.88,6.88,0,0,1,208.34,310.31Z" transform="translate(108.35)"/><path class="cls-40" d="M219.76,322c0,2.16-24.3,3.92-54.26,3.92s-54.26-1.76-54.26-3.92S135.53,318,165.5,318,219.76,319.79,219.76,322Z" transform="translate(108.35)"/><path class="cls-23" d="M161.75,238s-2.71.28-3.67-1.26c0,0-3.12-.05-3.49-2.58a4.78,4.78,0,0,1,1-3.92,3.78,3.78,0,0,1-2.84-2.63,3.09,3.09,0,0,1,1.45-3.58,3.27,3.27,0,0,1,0-4.86c1.46-1.62,3.59-.3,3.59-.3a3.09,3.09,0,0,1,2.72-3.76c3.61-.52,3.83,2.52,3.83,2.52s0-4.42,4.67-3.48c3.95.81,3.05,4.27,3.05,4.27s1.22-3.5,4.79-1.58a3.49,3.49,0,0,1,1.56,4.66,3.16,3.16,0,0,1,3.3,2.71c.85,4.29-1.68,5.16-1.68,5.16a3.39,3.39,0,0,1,1.66,3.35,4.13,4.13,0,0,1-3.12,3.48,4.54,4.54,0,0,1-4.48,1.91" transform="translate(108.35)"/><path class="cls-41" d="M174.05,245.39s-.32,5.86-5.65,5.69a7.29,7.29,0,0,1-3-.7,8.48,8.48,0,0,1-4-4.63c2.54-.65,2.54-5.33,2.54-5.33l7,.21a10,10,0,0,0,.07,1.21,5.1,5.1,0,0,0,1,2.83C173.23,245.85,174.05,245.39,174.05,245.39Z" transform="translate(108.35)"/><path class="cls-42" d="M165.66,242.47s-2,2.72-1.49,4.34,1.8,3.13,3.06,3.3l-1.79.27a8.48,8.48,0,0,1-4-4.63c2.54-.65,2.54-5.33,2.54-5.33l7,.21a10,10,0,0,0,.07,1.21A6.74,6.74,0,0,1,165.66,242.47Z" transform="translate(108.35)"/><path d="M161.93,245.18s2,4.91,5.81,5c4,.06,4.87-2.53,5.38-5,18.83-.21,24.61,24.67,24.61,24.67a33.87,33.87,0,0,1-4.06,1.55A17,17,0,0,0,190,273l-2.55,34.53h-40L146.78,273s-2.63-.63-4.75-1.33a13.69,13.69,0,0,1-4.27-2S142.76,245.13,161.93,245.18Z" transform="translate(108.35)"/><path class="cls-43" d="M138.46,270S134.65,283.52,135,290s15.57,15.45,15.57,15.45l2-6.79s-6.33-2.69-7.26-7.61,3-17.68,3-17.68l-4.14-1.13A33.71,33.71,0,0,1,138.46,270Z" transform="translate(108.35)"/><path class="cls-42" d="M152.57,298.62l-1.32,4.48-.68,2.32S135.35,296.4,135,290,138.47,270,138.47,270s.88.46,2.24,1a29.46,29.46,0,0,0,3.42,1.16c3.2.88,4.14,1.12,4.14,1.12s-3.9,12.78-3,17.69S152.57,298.62,152.57,298.62Z" transform="translate(108.35)"/><path class="cls-41" d="M152.57,298.62l-1.32,4.48c-4.18-2.74-13.2-9.19-13.47-14.13s1.89-14,2.93-17.93a29.46,29.46,0,0,0,3.42,1.16c3.2.88,4.14,1.12,4.14,1.12s-3.9,12.78-3,17.69S152.57,298.62,152.57,298.62Z" transform="translate(108.35)"/><path class="cls-43" d="M197.26,270s3.81,13.48,3.46,19.92-15.57,15.45-15.57,15.45l-2-6.79s6.32-2.69,7.26-7.61-3.4-17.74-3.4-17.74L191.6,272A46,46,0,0,0,197.26,270Z" transform="translate(108.35)"/><path class="cls-42" d="M200.72,290c-.26,4.72-8.51,10.83-12.89,13.75-1.59,1.06-2.68,1.71-2.68,1.71l-2-6.8a16.91,16.91,0,0,0,2.72-1.55l.14-.1s0,0,0,0c1.8-1.27,3.89-3.28,4.39-5.95.93-4.91-3.4-17.74-3.4-17.74l3-.81,1.62-.44a46.73,46.73,0,0,0,5.66-2S201.08,283.52,200.72,290Z" transform="translate(108.35)"/><path class="cls-41" d="M200.72,290c-.26,4.72-8.51,10.83-12.89,13.75l-2-6.64v0L186,297s0,0,0,0c1-.45,6.25-3.08,7.1-7.53.8-4.19-2.24-14.12-3.15-17l1.62-.44a46.73,46.73,0,0,0,5.66-2S201.08,283.52,200.72,290Z" transform="translate(108.35)"/><path class="cls-23" d="M192.29,308.1H142.92l-1.12-30.94a1.42,1.42,0,0,1,1.41-1.47H192a1.42,1.42,0,0,1,1.41,1.47Z" transform="translate(108.35)"/><path class="cls-23" d="M191.71,316.45a3.92,3.92,0,0,1,2.85-1.06c1.29,0,4.95.79,6.69.76s3.56-.41,4.56,1.08c1.7,2.52,1,4.8-1.9,5.14-1.55.19-2.84-.84-5.31-.59s-6.13-.56-7.21-2.27" transform="translate(108.35)"/><path class="cls-42" d="M188.33,315.28a18.78,18.78,0,0,0,3.21.62c1.28.06,4.15-.25,5.45.56s.88,3.28,0,3.84c-1.43.92-2.6.45-5.23-.38a16.46,16.46,0,0,0-5.71-.52" transform="translate(108.35)"/><path class="cls-10" d="M129.17,299.33a6.81,6.81,0,0,0-6.46,8.46l.06.19c1.79,6.35,10.11,9.57,19.87,10.86S189,320.78,189,320.78s1.59-2,1-6.62a142.36,142.36,0,0,1-20.07-6.43C155.7,302.07,143.4,298.88,129.17,299.33Z" transform="translate(108.35)"/><path class="cls-23" d="M197.82,316.77s-1-.54-1.29,0a8.35,8.35,0,0,0-.33,3.43c.3.69,1.72.44,1.72.44l1.16-3.13Z" transform="translate(108.35)"/><path class="cls-23" d="M143.74,316.56a4,4,0,0,0-2.91-1.1c-1.33,0-5.07.8-6.86.76s-3.55-.42-4.69.78c-2.14,2.26-.14,5.1,2.78,5.46,1.6.19,2.07-.72,4.6-.46s6.28-.56,7.4-2.31" transform="translate(108.35)"/><path class="cls-42" d="M147.21,315.37a19.31,19.31,0,0,1-3.29.63c-1.32.06-4.26-.28-5.59.55s-.92,3.36,0,3.94c1.47.94,2.67.46,5.36-.38a16.77,16.77,0,0,1,5.86-.5" transform="translate(108.35)"/><path class="cls-10" d="M206.38,299.48A6.81,6.81,0,0,1,212.8,308a1.33,1.33,0,0,1-.05.19c-1.81,6.33-10.15,9.53-19.91,10.78s-46.38,1.78-46.38,1.78-1.58-2-.92-6.63a141,141,0,0,0,20.09-6.36C179.84,302.12,192.15,299,206.38,299.48Z" transform="translate(108.35)"/><path d="M145.54,314.09c7.51-2.06,14.86-4.61,22.21-7.18a100.55,100.55,0,0,1-22.21,7.18Z" transform="translate(108.35)"/><path class="cls-23" d="M137.48,316.86s1-.55,1.33.05a9,9,0,0,1,.32,3.52c-.31.7-1.77.45-1.77.45l-1.17-3.22Z" transform="translate(108.35)"/><path class="cls-42" d="M169,241.82h-.08a9,9,0,0,1-1.8,0s-9,1.14-7.89-16.56h17S178,240.82,169,241.82Z" transform="translate(108.35)"/><path class="cls-41" d="M169,241.82h-.08c-.89.06-8.81.15-7.81-16.56h15.1S178,240.82,169,241.82Z" transform="translate(108.35)"/><path class="cls-23" d="M158.27,230.79a2.11,2.11,0,0,0,2.38-1.44s2.88-.3,3-2.78c0,0,2.53.89,3.77-.9a2.58,2.58,0,0,0,2.16,1.74,2.07,2.07,0,0,0,2.06-1,3,3,0,0,0,2.43,2.68c2.28.35,2.88-2.14,2.88-2.14l-.58-3.62-6.57-.84-9.33.94-3.42.45Z" transform="translate(108.35)"/><path class="cls-12" d="M170.43,290.91a3.18,3.18,0,1,1-3.18-3.18A3.17,3.17,0,0,1,170.43,290.91Z" transform="translate(108.35)"/><path class="cls-44" d="M489.26,155.72a109.91,109.91,0,0,1,14.1-16.06,111.56,111.56,0,0,1-14.1,16.06Z" transform="translate(108.35)"/><path class="cls-44" d="M490.05,141.45a16.59,16.59,0,0,1,2.59-7.77,16.44,16.44,0,0,1-2.59,7.77Z" transform="translate(108.35)"/><path class="cls-44" d="M485.89,154a19.65,19.65,0,0,1,2.82-8.48,19.52,19.52,0,0,1-2.82,8.48Z" transform="translate(108.35)"/><path class="cls-44" d="M505.35,155.25A14.82,14.82,0,0,1,512.2,152a14.67,14.67,0,0,1-6.85,3.25Z" transform="translate(108.35)"/><path class="cls-44" d="M493.68,160.8a17.12,17.12,0,0,1,7.38-3.51,17.06,17.06,0,0,1-7.38,3.51Z" transform="translate(108.35)"/><path class="cls-44" d="M495.86,165.66a111.29,111.29,0,0,1,21.36.37,110.47,110.47,0,0,1-21.36-.37Z" transform="translate(108.35)"/><path class="cls-8" d="M438.2,262.31c-1.9,6.83,2.4,13.54,8,17.15a36.24,36.24,0,0,0,9.64,4.12c3.71,1.09,7.65,2.16,11.55,1.95a12.86,12.86,0,0,0,9-4,8.58,8.58,0,0,0,2-8.25c-1.73-5.3-8.18-7.83-13.35-6.78a16.1,16.1,0,0,0-8,4.78,36.14,36.14,0,0,0-5.58,7.95c-3.49,6.4-6.68,13.45-6.77,20.88a23.57,23.57,0,0,0,1.92,9.77,18.12,18.12,0,0,0,6.43,7.7c5.79,4,13.53,4.8,20.35,4.08a40,40,0,0,0,11.24-2.8c3.44-1.42,6.68-3.23,10-4.91,5.71-2.9,12.33-5.43,18.66-3.29a11,11,0,0,1,3.53,2,1.53,1.53,0,0,0,2.11,0,1.49,1.49,0,0,0,0-2.1c-4.91-4.12-11.74-4.29-17.66-2.57-6.7,1.95-12.39,6.23-18.91,8.62a36.41,36.41,0,0,1-20.32,1.57,20.84,20.84,0,0,1-8.15-3.6,15.21,15.21,0,0,1-5-6.89c-2.26-6.22-1.08-12.87,1.28-18.88a71.91,71.91,0,0,1,4.41-9,29.65,29.65,0,0,1,5.22-7,14.57,14.57,0,0,1,3.29-2.37,9.62,9.62,0,0,1,1.81-.76c.24-.08.49-.14.74-.2l.45-.09h.06l.3,0a9.68,9.68,0,0,1,6.43,1.62l.36.26s.22.17.06,0c.22.18.44.37.65.58a7,7,0,0,1,.59.63c.19.23.07.09,0,0,.11.15.22.31.32.47a7.45,7.45,0,0,1,.41.74c.19.4-.09-.27.07.16l.09.26a8.22,8.22,0,0,1,.21.82c.1.44,0-.27,0,.18,0,.19,0,.39,0,.58,0,2.43-1.75,4.5-3.92,5.7-2.77,1.53-6.21,1.45-9.31.88a57,57,0,0,1-10-2.83c-5.49-2.13-10.94-6.2-11.79-12.43a9.82,9.82,0,0,1,.27-3.84,1.49,1.49,0,0,0-2.87-.79Z" transform="translate(108.35)"/><path class="cls-45" d="M292.93,158.66V310.22h-40a19.68,19.68,0,0,1-.13-6.32L271,174.2a40.1,40.1,0,0,1,5.62-15.54Z" transform="translate(108.35)"/><path class="cls-9" d="M455.73,327.37c-5.44,8.13-16.34,8.13-21.1,8.13l-155.56-8.92c-4.75,0-14.76,2.5-17.46-1.42-3-4.42-3.21-14.54-2.26-21.27l18.19-129.7a40.19,40.19,0,0,1,11.39-22.85l16-15,19.39,15.36,77.71-5.9,8.28-8.61,14.77,10.75A39.49,39.49,0,0,1,441,172.58c.09.53.18,1.07.26,1.61l18.19,129.7C461.26,312.24,459.5,321.72,455.73,327.37Z" transform="translate(108.35)"/><path class="cls-10" d="M447.23,330.7a19,19,0,0,1-12.6,4.8H278.52a19,19,0,0,1-12.6-4.8,20.2,20.2,0,0,1-6.58-17.89L277,183.11a40.64,40.64,0,0,1,11.07-22.85l14.08-14.48h20.71l.28-11.17,62.22.86,4.86,10.31H411l13.78,12.38a19.88,19.88,0,0,1,1.61,1.57c5.52,6.17,8.63,15.1,9.76,23.38l17.68,129.7A20.22,20.22,0,0,1,447.23,330.7Z" transform="translate(108.35)"/><path class="cls-9" d="M447.23,330.7a19,19,0,0,1-12.6,4.8H278.52a19,19,0,0,1-12.6-4.8,20.23,20.23,0,0,1-6.58-17.89l.34-2.49a19.91,19.91,0,0,0,6.24,10.54,19,19,0,0,0,12.6,4.79H434.63a19.07,19.07,0,0,0,12.6-4.79,19.91,19.91,0,0,0,6.24-10.54l.34,2.49A20.23,20.23,0,0,1,447.23,330.7Z" transform="translate(108.35)"/><path class="cls-44" d="M303.42,145.77l1.39-18.22a4.63,4.63,0,0,1,4.61-4.28h7.88a4.64,4.64,0,0,1,4.63,4.32l1.24,18.18Z" transform="translate(108.35)"/><path class="cls-44" d="M391.16,145.77l1.39-18.22a4.64,4.64,0,0,1,4.62-4.28h7.88a4.63,4.63,0,0,1,4.62,4.32l1.24,18.18Z" transform="translate(108.35)"/><polygon class="cls-9" points="500.39 145.77 430.8 145.77 430.75 134.61 500.36 134.68 500.39 145.77"/><circle class="cls-44" cx="467.72" cy="233.24" r="20.25"/><circle class="cls-46" cx="467.72" cy="233.24" r="22.57"/><circle class="cls-12" cx="348.68" cy="202.12" r="4.39" transform="translate(56.2 160.03) rotate(-24.11)"/><path class="cls-44" d="M349.18,200.8a1.42,1.42,0,0,1-1,2.65,1.42,1.42,0,0,1,1-2.65Z" transform="translate(108.35)"/><path class="cls-47" d="M352.62,200.2a4.33,4.33,0,0,1,.16,3.48,4.38,4.38,0,0,1-5.66,2.54,4.32,4.32,0,0,1-2.51-2.48,4.38,4.38,0,0,0,8-3.54Z" transform="translate(108.35)"/><path class="cls-12" d="M334.17,207.22a4.39,4.39,0,1,1-3.64,5A4.39,4.39,0,0,1,334.17,207.22Z" transform="translate(108.35)"/><path class="cls-44" d="M334.64,210.15a1.42,1.42,0,1,1-1.17,1.63A1.41,1.41,0,0,1,334.64,210.15Z" transform="translate(108.35)"/><path class="cls-47" d="M337.32,207.92a4.38,4.38,0,1,1-5.17,7.07,4.29,4.29,0,0,0,3.11.67,4.38,4.38,0,0,0,2.06-7.74Z" transform="translate(108.35)"/><path class="cls-12" d="M328,222.26a4.39,4.39,0,1,1-4.79,4A4.39,4.39,0,0,1,328,222.26Z" transform="translate(108.35)"/><path class="cls-44" d="M327.75,225.22a1.41,1.41,0,0,1,1.28,1.54,1.42,1.42,0,1,1-2.82-.27A1.4,1.4,0,0,1,327.75,225.22Z" transform="translate(108.35)"/><path class="cls-47" d="M330.91,223.73a4.39,4.39,0,1,1-6.79,5.54A4.31,4.31,0,0,0,327,230.7a4.38,4.38,0,0,0,4-7Z" transform="translate(108.35)"/><path class="cls-12" d="M329.1,238.92a4.39,4.39,0,1,1-4.6,4.17A4.39,4.39,0,0,1,329.1,238.92Z" transform="translate(108.35)"/><path class="cls-44" d="M329,241.89a1.43,1.43,0,0,1,1.35,1.49,1.42,1.42,0,1,1-1.35-1.49Z" transform="translate(108.35)"/><path class="cls-47" d="M332,240.27a4.38,4.38,0,1,1-6.54,5.83,4.39,4.39,0,0,0,6.54-5.83Z" transform="translate(108.35)"/><path class="cls-12" d="M338.06,252.74a4.39,4.39,0,1,1-4.13,4.63A4.39,4.39,0,0,1,338.06,252.74Z" transform="translate(108.35)"/><path class="cls-44" d="M338.23,255.71a1.42,1.42,0,0,1,1.5,1.33,1.43,1.43,0,0,1-1.34,1.5,1.42,1.42,0,0,1-1.49-1.34A1.4,1.4,0,0,1,338.23,255.71Z" transform="translate(108.35)"/><path class="cls-47" d="M341.13,253.76a4.34,4.34,0,0,1,1.56,3.11,4.39,4.39,0,0,1-4.13,4.63,4.34,4.34,0,0,1-3.31-1.24,4.32,4.32,0,0,0,3,1,4.38,4.38,0,0,0,2.85-7.49Z" transform="translate(108.35)"/><circle class="cls-12" cx="353.39" cy="264.37" r="4.39" transform="translate(34.32 154.4) rotate(-22.37)"/><path class="cls-44" d="M353.16,263a1.42,1.42,0,1,1-1.17,1.62A1.41,1.41,0,0,1,353.16,263Z" transform="translate(108.35)"/><path class="cls-47" d="M355.85,260.74a4.38,4.38,0,1,1-5.19,7.06,4.39,4.39,0,0,0,5.19-7.06Z" transform="translate(108.35)"/><path class="cls-12" d="M368.14,259.16a4.39,4.39,0,1,1-2,5.87A4.39,4.39,0,0,1,368.14,259.16Z" transform="translate(108.35)"/><path class="cls-44" d="M369.45,261.83a1.42,1.42,0,0,1,1.24,2.55,1.42,1.42,0,1,1-1.24-2.55Z" transform="translate(108.35)"/><path class="cls-47" d="M371.37,258.92a4.39,4.39,0,0,1,.62,8.13,4.4,4.4,0,0,1-3.53.14,4.39,4.39,0,0,0,2.91-8.27Z" transform="translate(108.35)"/><path class="cls-12" d="M384,249.29a4.39,4.39,0,1,1-4.53,4.25A4.38,4.38,0,0,1,384,249.29Z" transform="translate(108.35)"/><circle class="cls-44" cx="492.23" cy="253.67" r="1.42"/><path class="cls-47" d="M387,250.58a4.38,4.38,0,1,1-6.42,5.95,4.28,4.28,0,0,0,2.92,1.25,4.38,4.38,0,0,0,4.53-4.24A4.3,4.3,0,0,0,387,250.58Z" transform="translate(108.35)"/><path class="cls-12" d="M391.31,234.21a4.39,4.39,0,1,1-4.57,4.21A4.39,4.39,0,0,1,391.31,234.21Z" transform="translate(108.35)"/><path class="cls-44" d="M391.19,237.18a1.42,1.42,0,0,1-.12,2.84,1.42,1.42,0,1,1,.12-2.84Z" transform="translate(108.35)"/><path class="cls-47" d="M394.26,235.53a4.38,4.38,0,1,1-6.48,5.9,4.38,4.38,0,0,0,7.48-2.93A4.32,4.32,0,0,0,394.26,235.53Z" transform="translate(108.35)"/><path class="cls-12" d="M389.19,217.58a4.39,4.39,0,1,1-3.66,5A4.39,4.39,0,0,1,389.19,217.58Z" transform="translate(108.35)"/><path class="cls-44" d="M389.65,220.52a1.42,1.42,0,1,1-1.18,1.62A1.43,1.43,0,0,1,389.65,220.52Z" transform="translate(108.35)"/><path class="cls-47" d="M392.34,218.3a4.39,4.39,0,0,1-1.79,8,4.41,4.41,0,0,1-3.42-.91,4.39,4.39,0,0,0,5.21-7Z" transform="translate(108.35)"/><circle class="cls-48" cx="359.37" cy="233.24" r="40.94" transform="translate(48.68 322.43) rotate(-45)"/><path class="cls-44" d="M406,214.22c0-1,.51-1.67,1.52-1.67s1.53.66,1.53,1.67v3.43c0,1-.5,1.68-1.53,1.68s-1.52-.66-1.52-1.68Zm.73,3.48c0,.6.26,1,.79,1s.79-.36.79-1v-3.52c0-.6-.25-1-.79-1s-.79.36-.79,1Z" transform="translate(108.35)"/><path class="cls-44" d="M341.32,183a2,2,0,0,1-.92.28v-.61a1.13,1.13,0,0,0,1.14-.88h.51v6.65h-.73Z" transform="translate(108.35)"/><path class="cls-44" d="M323.23,196.69c0,2-2.25,2.73-2.26,4.26v.1h2.18v.67h-2.91v-.57c0-2.14,2.25-2.56,2.25-4.43,0-.69-.23-1.05-.78-1.05s-.78.39-.78,1v.59h-.69v-.54c0-1,.46-1.69,1.49-1.69S323.23,195.67,323.23,196.69Z" transform="translate(108.35)"/><path class="cls-44" d="M309.74,222.39v.17a1.31,1.31,0,0,1-.81,1.37,1.31,1.31,0,0,1,.81,1.38v.51c0,1-.47,1.68-1.5,1.68s-1.49-.66-1.49-1.68v-.46h.69v.51c0,.6.25,1,.78,1s.78-.35.78-1v-.51c0-.66-.27-1-.83-1h-.4v-.66h.43a.8.8,0,0,0,.8-.92v-.3c0-.69-.24-1-.78-1s-.78.37-.78,1v.34h-.69v-.3c0-1,.47-1.67,1.49-1.67S309.74,221.37,309.74,222.39Z" transform="translate(108.35)"/><path class="cls-44" d="M311.43,251.63V253h-.72v-1.34h-2.15V251l2.06-4.63h.81V251H312v.68Zm-2.18-.68h1.46V247.7Z" transform="translate(108.35)"/><path class="cls-44" d="M326.63,271.47a1.06,1.06,0,0,1,1-.55c.86,0,1.24.62,1.24,1.57v1.3c0,1-.49,1.68-1.5,1.68s-1.49-.66-1.49-1.68v-.44h.69v.49c0,.6.25,1,.78,1s.78-.36.78-1v-1.29c0-.6-.25-1-.78-1a.71.71,0,0,0-.75.71v.15h-.7l.19-3.69h2.62v.66h-2Z" transform="translate(108.35)"/><path class="cls-44" d="M352.64,281.76v.12H352v-.17c0-.6-.25-.95-.79-.95s-.81.36-.81,1.07v1.49a1.07,1.07,0,0,1,1.07-.71c.86,0,1.24.62,1.24,1.58v1c0,1-.51,1.69-1.52,1.69s-1.53-.67-1.53-1.69V281.8c0-1.05.47-1.71,1.53-1.71S352.64,280.74,352.64,281.76Zm-2.29,2.48v1c0,.6.25,1,.79,1s.79-.36.79-1v-1c0-.59-.26-.95-.79-.95S350.35,283.65,350.35,284.24Z" transform="translate(108.35)"/><path class="cls-44" d="M378.74,278h-2.26v-.67h3V278l-1.71,6H377Z" transform="translate(108.35)"/><path class="cls-44" d="M401.88,261.78V262a1.3,1.3,0,0,1-.76,1.37,1.34,1.34,0,0,1,.76,1.41v.49a1.57,1.57,0,1,1-3.13,0v-.49a1.35,1.35,0,0,1,.77-1.41,1.3,1.3,0,0,1-.77-1.37v-.21a1.57,1.57,0,1,1,3.13,0Zm-2.4,0v.33c0,.64.32.93.84.93s.83-.29.83-.93v-.33c0-.68-.31-1-.83-1S399.48,261.12,399.48,261.8Zm0,2.88v.56c0,.69.31,1,.84,1s.82-.32.83-1v-.56c0-.65-.28-1-.83-1S399.48,264,399.48,264.68Z" transform="translate(108.35)"/><path class="cls-44" d="M412.09,238.7v3.39c0,1.06-.47,1.72-1.54,1.72s-1.5-.65-1.5-1.67V242h.7v.17c0,.6.25.95.78.95s.82-.36.82-1.07v-1.49a1.06,1.06,0,0,1-1.07.71c-.86,0-1.24-.61-1.24-1.57v-1c0-1,.5-1.67,1.52-1.67S412.09,237.69,412.09,238.7Zm-2.32,0v1c0,.6.26,1,.79,1s.79-.36.79-1v-1c0-.61-.25-1-.79-1S409.77,238.06,409.77,238.67Z" transform="translate(108.35)"/><path class="cls-49" d="M383.33,134.81l-1.42,8.1s-8.63,3.17-10.58,3.2-10.74,1.25-10.74,1.25,1.21,6.29.42,10.14-7.32,33.17-7.32,33.17l-1.4.89v3a5.3,5.3,0,0,1,1.4,1.82,17,17,0,0,1,.37,4.14s-1.81.27-4.25.6c-.65.09-1.37-1.31-2.09-1.22-4.93.65-10.92,2.84-10.92,2.32a5.43,5.43,0,0,1,1.2-2.32l7.14-1.22,1.68-51.32s-7,.57-7.3,1.61.25,6.58.22,9.09c0,2.23-2.94,29.93-2.94,29.93a6.49,6.49,0,0,0-1.13.37c.07.27-.51.93-.22,2,.4,1.45,1.65,3.41,1.35,4.11-.53,1.21-3.47,1.35-3.47,1.35l-2.06-9.87-.86-21.13-1.17-13.3,2.25-10.81,16.76-3.79,34.17-2.27" transform="translate(108.35)"/><path class="cls-50" d="M329.22,187.29a35.38,35.38,0,0,0,0,4.45c.18,1.17,3.95.94,4.33.29s.14-6.09.14-6.09" transform="translate(108.35)"/><path class="cls-19" d="M334.64,193.19c.06,1.23,0,3.56,0,3.56l-3.88.78-.46-.67A6.73,6.73,0,0,1,328,198a14.82,14.82,0,0,1-3.64.21c-3.17-.33-5.33-1.4-5.42-1.87-.38-2,8.9-3.42,9.43-4.67.38-.9.18-1.11.7-1a1.25,1.25,0,0,1,.8.61,2.3,2.3,0,0,0,2.4,1.12,2.76,2.76,0,0,0,1.48-.77A1.59,1.59,0,0,1,334.64,193.19Z" transform="translate(108.35)"/><path class="cls-23" d="M362.51,143c-5.79-.1-21.09,2.28-26.93,2.79.3,2.42,1.61,5.71,1.66,9,.17,11-1.33,24.75-2.58,33.57,0,0-2.32,2.42-5.67-.08-2.61-14.92-6.34-44.83-5-50.84,1.77-7.66,25.14-13.72,39.6-12.59" transform="translate(108.35)"/><g class="cls-51"><path class="cls-52" d="M363.63,124.91c-10.22-.8-24.87,2-33.22,6.4a20.51,20.51,0,0,1,5,3.09,7.82,7.82,0,0,1,2.83,5.8,19.92,19.92,0,0,1-.68,5.41c6.76-.75,19.75-2.68,25-2.59Z" transform="translate(108.35)"/></g><path class="cls-50" d="M343.56,191.86a35.82,35.82,0,0,0,.2,4.45c.23,1.17,4,.79,4.35.13s-.09-6.09-.09-6.09" transform="translate(108.35)"/><path class="cls-19" d="M349.19,197.56c.11,1.23.1,3.55.1,3.55l-3.85.93-.49-.65a6.61,6.61,0,0,1-2.26,1.23,15.26,15.26,0,0,1-3.63.35c-3.18-.21-5.38-1.2-5.49-1.67-.45-1.94,8.77-3.75,9.25-5,.35-.92.14-1.12.67-1a1.28,1.28,0,0,1,.82.58,2.3,2.3,0,0,0,2.44,1,2.76,2.76,0,0,0,1.45-.83A1.58,1.58,0,0,1,349.19,197.56Z" transform="translate(108.35)"/><path class="cls-23" d="M385.15,125.68c1.52,3.52,2.51,9.88,1,12.61-1.33,2.39-2,3.86-4.23,4.62-9.7,3.21-18.13,2.59-29.08,1.92,4.52,12.21-2.52,36.93-3.54,48-4.1,1.82-6.42-.12-6.42-.12.46-22.57-4.57-54.11-1.52-59.5,1.85-3.28,23.94-7.61,24.38-7.55" transform="translate(108.35)"/><path class="cls-50" d="M307.22,95.22l-2.65-.15a2.91,2.91,0,0,0-1.27.25,14.18,14.18,0,0,1-2.24.76c-1.91.51-3.77-.14-5-.35s-.21-1.37,1.63-1.48.84.26,1.72-.29-.82-1.35-2.21-1.86a23.57,23.57,0,0,1-2.55-1.17c-1.35-.63-2.53-1-3.31-1.48-.55-.31-1-.85-.38-1s4.37.83,5.2.89,1.29-1.18,3.5-1.19,4.41,2.34,5.43,2.91,5,.26,5,.26" transform="translate(108.35)"/><path class="cls-17" d="M360.1,73.38s-5.26,0-8.51,2.28c-1.83,1.29-17.71,11.67-19.68,12.73s-26.35,2.47-26.35,2.47a4.33,4.33,0,0,0-1.27,2.81,10.91,10.91,0,0,0,.54,3.25s24.1,2.23,29.17,1.19,25.39-9.72,25.39-9.72" transform="translate(108.35)"/><path class="cls-53" d="M385.27,125.85c-2.62,6.36-16.6,4.06-24,4.33-6.67.24-8.32-2.05-8.32-2.05.25-9.53,1.81-16.6.32-23.54-2.55-11.8-4-26.26-1.63-28.93,4.65-3.56,17-6.16,26.74-3.13,7.29,2.26,9.59,4.4,9.15,9.88C387.34,84.23,382.43,118,385.27,125.85Z" transform="translate(108.35)"/><polygon class="cls-54" points="483.13 127.45 447.87 124.69 468.33 133.99 483.13 127.45"/><polygon class="cls-55" points="468.2 134.81 482.93 128.69 483.13 127.45 468.14 133.59 468.2 134.81"/><path class="cls-50" d="M358,122.15l-3,1.38a5,5,0,0,0-5.66-.22c-3,1.93,0,8.18,2.14,7.72s8.52-4.54,8.52-4.54Z" transform="translate(108.35)"/><path class="cls-17" d="M358.49,128.13s-1.61-.51-2.18-3.12a8.9,8.9,0,0,1,.24-3s8.31-5,14.2-9.43a43.32,43.32,0,0,1,8.65-5.31q-.75-7.59-1.48-15.18c-.27-2.69-.94-6.18-.57-8.86.49-3.6,1.85-9.39,6.21-8.67,7.79,1.3,5.95,17.75,5.67,23.76-.19,4.09.17,11.08-2.37,14.56C383,118.17,358.49,128.13,358.49,128.13Z" transform="translate(108.35)"/><path class="cls-55" d="M359.85,134.81l-32.39-5.25a2.31,2.31,0,0,1-1.94-2.18l-1-22.89a1.93,1.93,0,0,1,2.25-2l30.33,4.92a1.93,1.93,0,0,1,1.63,1.83Z" transform="translate(108.35)"/><path class="cls-50" d="M359,63.05c.78.29-.4,5.3,1.35,5.77a16.35,16.35,0,0,0,4.59.34c0,.13-.38,2.83-.38,2.83l.4,1.69h3.08l4.24-1.16s.14-5.42.31-6.06a24.5,24.5,0,0,0,2.91-4.63,12.66,12.66,0,0,0,1.21-4.24c0-2.88-.1-5.9-2-7.39s-13.9-6.82-14.23,2c0,0-1.5,6.12-2.09,7.68-.19.52-1,2.18-.84,2.69S358.63,62.91,359,63.05Z" transform="translate(108.35)"/><path class="cls-56" d="M364.81,70.28a9.83,9.83,0,0,1-.51,1.87l.67,1.36,3.08.17,4.24-1.16s.14-5.42.31-6.06a24.5,24.5,0,0,0,2.91-4.63l-.15-1.71s-3.72-.9-3.86-.88-.17,7.33-.29,9.38c-1.51,1.21-3.29,2.59-4,2.59A4,4,0,0,1,364.81,70.28Z" transform="translate(108.35)"/><path d="M371.5,59.24S368.59,63,368.69,57a.42.42,0,0,0-.41-.37c-.79-.1-2.6-.72-2.5-4.31a.54.54,0,0,0-.57-.54,37.44,37.44,0,0,0-3.86.26,4.4,4.4,0,0,0-.71.19A12.6,12.6,0,0,0,360.1,54c-.07.24-.34,1.79-.34,1.79s-1-.3-1-1a16.78,16.78,0,0,0,.14-2.37c-.13-.32-1.11-.55-1.27-1.29-.37-1.67-1.08-8.2,4.62-5.12.75.41,3.57.51,5.2.34,2.28-.23,12.41.42,11.2,9.92-.72,5.64-1.63,7.5-3.13,8.61-.25.19-1.5,1.39-1.71,1.51a1.75,1.75,0,0,1-1.23.18,4.16,4.16,0,0,1-.34-1.54C372.18,63.19,372.33,59.9,371.5,59.24Z" transform="translate(108.35)"/><path class="cls-50" d="M371.27,59s.19-1.94,1.77-1.67c2.13.36,2.12,5.59-2.33,5.66A16.38,16.38,0,0,1,371.27,59Z" transform="translate(108.35)"/><path class="cls-12" d="M372.86,69a16,16,0,0,1,1.92,2.67,8.07,8.07,0,0,1-2.12,1.65c-1.13.59-6.38,3.45-6.38,3.45L365,73.51S370.33,70.5,372.86,69Z" transform="translate(108.35)"/><path class="cls-12" d="M365,73.51a7.38,7.38,0,0,0-2.46,2.63,12.34,12.34,0,0,1,.21-5A9.32,9.32,0,0,1,365,69.26,14.84,14.84,0,0,0,365,73.51Z" transform="translate(108.35)"/><path class="cls-23" d="M372.72,56.06a16.83,16.83,0,0,0-.18-4.13,7,7,0,0,0-2.62-4.44,6.57,6.57,0,0,0-4.95-1,7.12,7.12,0,0,1,4.68,1.38A6.77,6.77,0,0,1,372,52.05a16.36,16.36,0,0,1,.25,4L372,56a4.14,4.14,0,0,0-2.46,7.48,7.32,7.32,0,0,1-6.15,2.7,1,1,0,0,0-.9-.49.8.8,0,1,0,0,1.55,1,1,0,0,0,.87-.45h.2a7.75,7.75,0,0,0,6.48-3,4.09,4.09,0,0,0,2,.51,4.15,4.15,0,0,0,.76-8.23Z" transform="translate(108.35)"/><path class="cls-8" d="M534.39,322.4c-10.47,5.35-25.58,1.63-32.42-12h0c-22.92-42-60.53-118.49-60.53-118.49-6.79-15.85-1.16-28,9.24-33.33h0l4.2-2.14h0l12-5.73c.82,9.91,2.5,11.21,5.12,16.34l9.65,3.54c2.63,5.13,9.92,13.45,4.78,16.07l-9.15,4.68a4,4,0,0,0-1.76,5.42L518,279.93a4,4,0,0,0,5.42,1.76l8.06-4c5.14-2.62,9.33,9.3,11.95,14.44l12.46,7.56c-3.4,4.12.36,11.35-4.77,14l-12.52,6.59h0l-4.2,2.14Z" transform="translate(108.35)"/><path class="cls-9" d="M553.26,301.69,544,283.55a10.44,10.44,0,0,0-14-4.55l-9.15,4.68a4,4,0,0,1-5.43-1.76l-42.51-83.2a4,4,0,0,1,1.76-5.42l1.05-.54a4,4,0,0,0-.17,4L518,279.94a4,4,0,0,0,5.42,1.75l7.47-3.68c5.13-2.63,5.19,2.6,7.81,7.73l9.83,6.33" transform="translate(108.35)"/><ellipse class="cls-9" cx="540.88" cy="295.91" rx="14.09" ry="20.5" transform="translate(32.72 301.56) rotate(-29.21)"/><path class="cls-8" d="M550.89,313.8c-.12.06-.23.13-.35.18,6.54-3.94,7.46-14.86,2-24.6s-15.17-14.65-22-11.2l.28-.17c6.79-3.8,16.78,1.13,22.31,11S557.68,310,550.89,313.8Z" transform="translate(108.35)"/><ellipse class="cls-9" cx="476.06" cy="168.96" rx="13.04" ry="20.5" transform="translate(86.43 253.79) rotate(-29.21)"/><path class="cls-8" d="M486.06,186.86l-.31.16c6.15-3.6,6.7-14.36,1.23-24.16S472.13,148,465.85,151.19l.2-.12c6.29-3.52,15.86,1.65,21.39,11.53S492.35,183.34,486.06,186.86Z" transform="translate(108.35)"/><path class="cls-57" d="M249.21,34.85h-1.79V33.06a.53.53,0,0,0-.53-.53.52.52,0,0,0-.52.53v1.79h-1.79a.52.52,0,0,0-.53.52.53.53,0,0,0,.53.53h1.79v1.79a.52.52,0,0,0,.52.52.52.52,0,0,0,.53-.52V35.9h1.79a.52.52,0,0,0,.52-.53A.52.52,0,0,0,249.21,34.85Z" transform="translate(108.35)"/><path class="cls-57" d="M240,176.18h-1.79v-1.79a.52.52,0,0,0-.52-.53.53.53,0,0,0-.53.53v1.79h-1.79a.52.52,0,1,0,0,1h1.79V179a.52.52,0,0,0,.53.52.52.52,0,0,0,.52-.52v-1.8H240a.52.52,0,1,0,0-1Z" transform="translate(108.35)"/><path class="cls-57" d="M537.32,114.55h-1.79v-1.8a.52.52,0,0,0-.53-.52.52.52,0,0,0-.52.52v1.8h-1.79a.52.52,0,1,0,0,1h1.79v1.79a.52.52,0,0,0,.52.53.53.53,0,0,0,.53-.53v-1.79h1.79a.52.52,0,0,0,0-1Z" transform="translate(108.35)"/><path class="cls-57" d="M69.17,57.14H67.38V55.35a.52.52,0,0,0-.52-.53.53.53,0,0,0-.53.53v1.79H64.54a.52.52,0,1,0,0,1h1.79V60a.52.52,0,0,0,.53.52.52.52,0,0,0,.52-.52v-1.8h1.79a.52.52,0,1,0,0-1Z" transform="translate(108.35)"/><path class="cls-57" d="M449.42,91.08h-1.8V89.29a.52.52,0,1,0-1,0v1.79h-1.79a.53.53,0,0,0-.53.53.52.52,0,0,0,.53.52h1.79v1.79a.52.52,0,1,0,1,0V92.13h1.8a.52.52,0,0,0,.52-.52A.52.52,0,0,0,449.42,91.08Z" transform="translate(108.35)"/><path class="cls-58" d="M317.82,73.57A1.85,1.85,0,1,1,316,71.72,1.85,1.85,0,0,1,317.82,73.57Z" transform="translate(108.35)"/><path class="cls-58" d="M480.45,28.29a1.86,1.86,0,1,1-1.86-1.86A1.85,1.85,0,0,1,480.45,28.29Z" transform="translate(108.35)"/><path class="cls-58" d="M558.59,188.28a1.86,1.86,0,1,1-1.85-1.85A1.85,1.85,0,0,1,558.59,188.28Z" transform="translate(108.35)"/><path class="cls-58" d="M178.2,97.16a1.85,1.85,0,1,1-1.85-1.85A1.85,1.85,0,0,1,178.2,97.16Z" transform="translate(108.35)"/><path class="cls-58" d="M28.43,139.08a1.86,1.86,0,1,1-1.86-1.85A1.85,1.85,0,0,1,28.43,139.08Z" transform="translate(108.35)"/><rect class="cls-24" x="490.39" y="11.07" width="73.64" height="36.13" rx="3.44"/><g class="cls-59"><line class="cls-60" x1="555.52" y1="36.47" x2="540.23" y2="36.47"/><line class="cls-60" x1="509.68" y1="31.02" x2="499.33" y2="31.02"/><line class="cls-60" x1="555.52" y1="31.02" x2="514.16" y2="31.02"/><line class="cls-60" x1="555.52" y1="25.57" x2="499.33" y2="25.57"/><line class="cls-60" x1="516.65" y1="20.13" x2="499.33" y2="20.13"/><line class="cls-60" x1="555.52" y1="20.13" x2="520.97" y2="20.13"/><line class="cls-60" x1="535.76" y1="36.47" x2="499.33" y2="36.47"/></g><polygon class="cls-24" points="502.68 47.2 495.97 55.36 495.97 47.2 502.68 47.2"/></g></g></g></svg>