<svg width="34" height="27" viewBox="0 0 34 27" fill="none" xmlns="http://www.w3.org/2000/svg">
<path d="M2.05953 18.6278C2.59355 19.207 3.27234 19.6325 4.0253 19.8609V19.8622L4.09266 19.8854L8.33811 21.3511L8.35396 21.3565H8.37074H8.44098C9.0937 22.0211 9.87091 22.5509 10.7284 22.9155C11.5989 23.2857 12.5346 23.4782 13.4805 23.4817H13.4809H20.6723H20.6726C21.6186 23.4785 22.5544 23.2861 23.4249 22.9159C24.2816 22.5516 25.0581 22.0224 25.7103 21.3585C25.7322 21.3588 25.7542 21.358 25.7761 21.3562L25.7883 21.3552L25.7999 21.3512L30.0131 19.9208C30.805 19.7067 31.5217 19.2763 32.0829 18.6779C32.6448 18.0786 33.0285 17.3346 33.1911 16.5294C33.3536 15.7241 33.2884 14.8895 33.0028 14.1193C32.7173 13.3491 32.2228 12.6738 31.5747 12.1691C31.5747 12.1691 31.5746 12.169 31.5745 12.1689L29.03 10.1614C28.5384 8.53273 27.4755 7.1357 26.0361 6.22743L26.036 6.22737L20.8428 2.95901L20.8424 2.95878C19.7125 2.25468 18.4079 1.88145 17.0766 1.88145C15.7453 1.88145 14.4406 2.25468 13.3108 2.95878L13.3104 2.95902L8.14159 6.21272L8.14093 6.21313C6.72524 7.1197 5.67923 8.50017 5.18893 10.1065L5.16274 10.1271L2.56369 12.1692L2.56335 12.1694C1.92621 12.6744 1.44073 13.3454 1.16035 14.1085C0.87997 14.8716 0.815559 15.6973 0.974205 16.4947C1.13285 17.292 1.50841 18.0302 2.05953 18.6278ZM30.6935 13.3031L30.694 13.3035C31.2497 13.7403 31.6325 14.36 31.7745 15.0524C31.9164 15.7446 31.8083 16.4648 31.4695 17.0849C31.2692 17.4435 30.9984 17.7579 30.6733 18.009C30.3482 18.2602 29.9755 18.4429 29.5777 18.546L29.5776 18.5457L29.5702 18.5483L27.0956 19.4015C27.1744 19.2368 27.2467 19.069 27.3121 18.8985L27.3124 18.8978L28.8855 14.7012L28.8855 14.701C29.1823 13.9053 29.3315 13.0627 29.3263 12.2146L30.6935 13.3031ZM6.5639 10.389C6.95999 9.21904 7.72642 8.21189 8.74462 7.51848V7.54348L8.8979 7.447L14.0665 4.19344C14.9689 3.62874 16.012 3.32927 17.0766 3.32927C18.1411 3.32927 19.1842 3.62874 20.0867 4.19344L25.2548 7.44671C25.2549 7.44678 25.255 7.44685 25.2551 7.44691C26.3434 8.14038 27.1628 9.18406 27.5782 10.4058C27.9936 11.6275 27.9802 12.9543 27.5402 14.1674C27.5401 14.1675 27.5401 14.1677 27.54 14.1679L25.9674 18.3631C25.9674 18.3631 25.9674 18.3632 25.9673 18.3632C25.5602 19.4362 24.8379 20.3609 23.8953 21.0155C22.9528 21.6702 21.8342 22.0242 20.6866 22.031C20.6865 22.031 20.6864 22.031 20.6863 22.031L13.4814 22.031C12.3334 22.0256 11.2142 21.6721 10.2713 21.0172C9.32847 20.3624 8.60641 19.437 8.20046 18.3632L8.20045 18.3632L6.61301 14.1675C6.61296 14.1673 6.61291 14.1672 6.61285 14.167C6.16545 12.9503 6.14817 11.617 6.5639 10.389ZM7.08815 19.4065L4.51405 18.5335L4.5141 18.5333L4.50862 18.5318C4.12194 18.4247 3.76051 18.2416 3.44547 17.9932C3.13049 17.7447 2.86821 17.436 2.67398 17.085C2.33455 16.4654 2.22569 15.7455 2.36674 15.0532C2.50781 14.3608 2.88972 13.7409 3.44462 13.3034L4.84381 12.2016C4.8473 13.0505 5.00397 13.8925 5.30687 14.6868C5.3069 14.6869 5.30693 14.687 5.30696 14.6871L6.88421 18.8817C6.94457 19.0595 7.01262 19.2346 7.08815 19.4065Z" fill="black" stroke="black" stroke-width="0.2"/>
<path d="M17.077 7.23438C15.7422 7.23438 14.4619 7.76449 13.5178 8.70817C13.3844 8.84158 13.2035 8.91653 13.0148 8.91653C12.8261 8.91653 12.6451 8.84157 12.5117 8.70815C12.3783 8.57473 12.3033 8.39377 12.3033 8.20508C12.3033 8.01639 12.3783 7.83543 12.5117 7.70201M17.077 7.23438L21.5716 8.63744M17.077 7.23438C18.4118 7.23438 19.6919 7.76441 20.636 8.70794M17.077 7.23438L20.7069 8.63744M12.5117 7.70201L12.5824 7.77272M12.5117 7.70201C12.5117 7.70203 12.5117 7.70205 12.5116 7.70207L12.5824 7.77272M12.5117 7.70201C13.1109 7.10187 13.8225 6.62575 14.6058 6.3009C15.3892 5.97603 16.2289 5.80881 17.077 5.80881C17.9251 5.80881 18.7648 5.97603 19.5482 6.3009C20.3316 6.62576 21.0432 7.1019 21.6424 7.70207C21.7085 7.76805 21.7609 7.84642 21.7967 7.9327C21.8326 8.01904 21.851 8.1116 21.851 8.20508C21.851 8.29856 21.8326 8.39112 21.7967 8.47746C21.761 8.5635 21.7088 8.64168 21.6429 8.70756M12.5824 7.77272C12.4677 7.88739 12.4033 8.04291 12.4033 8.20508C12.4033 8.36725 12.4677 8.52277 12.5824 8.63744C12.6971 8.75211 12.8526 8.81653 13.0148 8.81653C13.1769 8.81653 13.3325 8.75211 13.4471 8.63744L21.5716 7.77272C20.9817 7.18185 20.2811 6.7131 19.5099 6.39327C18.7387 6.07344 17.9119 5.90881 17.077 5.90881C16.2421 5.90881 15.4154 6.07344 14.6441 6.39327C13.8729 6.7131 13.1723 7.18185 12.5824 7.77272ZM21.6429 8.70756C21.6427 8.70778 21.6425 8.70801 21.6422 8.70824L21.5716 8.63744M21.6429 8.70756C21.6431 8.70732 21.6434 8.70709 21.6436 8.70686L21.5716 8.63744M21.6429 8.70756C21.578 8.7747 21.5001 8.82799 21.414 8.86419C21.3277 8.90047 21.235 8.91884 21.1414 8.9182C21.0475 8.91831 20.9545 8.8998 20.8678 8.86375C20.781 8.82766 20.7022 8.7747 20.636 8.70794M21.5716 8.63744C21.516 8.69515 21.4491 8.74094 21.3752 8.77201C21.3013 8.80309 21.2219 8.8188 21.1417 8.8182C21.0609 8.81835 20.9808 8.80244 20.9062 8.77141C20.8315 8.74039 20.7638 8.69485 20.7069 8.63744M20.636 8.70794C20.636 8.70802 20.6361 8.70809 20.6362 8.70817L20.7069 8.63744M20.636 8.70794C20.6359 8.70791 20.6359 8.70787 20.6359 8.70784L20.7069 8.63744" fill="black" stroke="black" stroke-width="0.2"/>
<path d="M29.1831 2.33252L29.1831 2.33263H29.1877H29.3049H29.3134L29.3217 2.33121C29.3696 2.32305 29.4163 2.30942 29.461 2.29059L29.4611 2.29091L29.4686 2.28701L29.5712 2.23327L29.5714 2.23366L29.5792 2.22859C29.6195 2.20246 29.6564 2.1715 29.6892 2.1364C29.7554 2.07158 29.808 1.99418 29.844 1.90874C29.8794 1.82433 29.8979 1.73377 29.8984 1.64224C29.9034 1.59588 29.9031 1.54911 29.8977 1.50279L29.8977 1.50273C29.8918 1.4533 29.8775 1.40527 29.8553 1.36074C29.841 1.32559 29.8243 1.29147 29.8053 1.2586C29.8003 1.24118 29.7925 1.22722 29.7863 1.21755C29.7757 1.20115 29.763 1.18747 29.753 1.1775C29.743 1.16744 29.7322 1.15782 29.7239 1.1504L29.7235 1.15003C29.7142 1.14171 29.7079 1.13606 29.703 1.13109L29.6323 1.2018L29.7033 1.13139C29.6706 1.09849 29.6342 1.06956 29.5948 1.0452C29.558 1.01891 29.5186 0.99652 29.4772 0.978392L29.3455 0.91989L29.3351 0.915253L29.3239 0.913087C29.2094 0.890964 29.0913 0.896957 28.9796 0.930552C28.868 0.964148 28.7661 1.02434 28.6829 1.10596L28.6823 1.10538L28.6744 1.11541L28.6011 1.20823L28.6009 1.20809L28.597 1.2138C28.5704 1.25272 28.549 1.29492 28.5333 1.33934C28.5136 1.38066 28.4987 1.42415 28.489 1.46894L28.4874 1.47645L28.4869 1.48412C28.4844 1.52774 28.4843 1.57147 28.4868 1.6151C28.4872 1.80113 28.5606 1.9796 28.6913 2.11215C28.8214 2.24522 28.9972 2.32397 29.1831 2.33252Z" fill="black" stroke="black" stroke-width="0.2"/>
<path d="M28.5941 5.03993L28.5935 5.04032L28.6011 5.05003L28.6744 5.14286L28.6737 5.14342L28.6834 5.15277C28.7171 5.1854 28.7546 5.21387 28.7951 5.23759C28.8322 5.26546 28.8729 5.28833 28.916 5.30562L28.9158 5.30606L28.9252 5.3088L29.0424 5.343L29.0422 5.34366L29.0539 5.34562C29.1425 5.36048 29.2329 5.36048 29.3215 5.34562L29.3216 5.3463L29.3329 5.343L29.4502 5.3088L29.4503 5.30926L29.4594 5.30562C29.5022 5.28846 29.5426 5.2658 29.5795 5.23822C29.6209 5.21486 29.6583 5.18496 29.6903 5.14965C29.7222 5.1175 29.7514 5.08275 29.7775 5.04574L29.7777 5.04588L29.7813 5.03993C29.8042 5.0022 29.824 4.96273 29.8407 4.92189C29.8618 4.87948 29.8773 4.83446 29.8866 4.788L29.8876 4.78818L29.8884 4.77441C29.891 4.73235 29.8911 4.69016 29.8886 4.64809C29.8886 4.55503 29.8703 4.46286 29.8345 4.3769C29.7988 4.29087 29.7463 4.21277 29.6802 4.14712C29.6484 4.11194 29.611 4.08214 29.5697 4.05884C29.5328 4.03126 29.4924 4.0086 29.4496 3.99145L29.4498 3.991L29.4404 3.98826L29.3232 3.95407L29.3233 3.95362L29.3138 3.95181C29.224 3.93481 29.1318 3.93481 29.0421 3.95181L29.042 3.95135L29.0327 3.95407L28.9154 3.98826L28.9153 3.98781L28.9062 3.99145C28.8631 4.00873 28.8225 4.0316 28.7853 4.05947C28.7448 4.08319 28.7073 4.11166 28.6736 4.1443L28.6735 4.14425L28.671 4.14687C28.5415 4.28161 28.4686 4.46087 28.4673 4.64769C28.4648 4.68989 28.4648 4.73221 28.4674 4.77441L28.4683 4.78819L28.4728 4.80122C28.4887 4.84651 28.5105 4.88946 28.5376 4.92896C28.5537 4.96729 28.5726 5.00439 28.5941 5.03993Z" fill="black" stroke="black" stroke-width="0.2"/>
<path d="M30.1106 3.5283L30.1107 3.52837C30.1355 3.56625 30.1637 3.60188 30.1947 3.63486L30.1943 3.63532L30.2031 3.64279L30.2959 3.72096L30.305 3.7286L30.3156 3.73391L30.4231 3.78765L30.4231 3.78775L30.4274 3.78968C30.4707 3.80881 30.5162 3.82264 30.5628 3.83088L30.5628 3.83104L30.5685 3.83172C30.6156 3.83725 30.6631 3.8374 30.7101 3.83216C30.8897 3.82415 31.0597 3.74887 31.1863 3.62121C31.3127 3.49374 31.3865 3.32345 31.3933 3.14415C31.3988 3.09684 31.3987 3.04902 31.3927 3.00175L31.3927 3.00174L31.3922 2.99847C31.3847 2.95144 31.3709 2.90564 31.3511 2.86231C31.3343 2.82085 31.3142 2.7808 31.291 2.74254L31.2913 2.74242L31.2872 2.73673C31.2606 2.69898 31.2308 2.66358 31.1981 2.63089L31.1982 2.63082L31.1949 2.62785C31.0585 2.50281 30.8801 2.43345 30.695 2.43345C30.5099 2.43345 30.3316 2.50281 30.1951 2.62785L30.195 2.6277L30.1906 2.63228C30.061 2.76702 29.9881 2.94627 29.9868 3.1331C29.9843 3.1753 29.9844 3.21762 29.987 3.25982L29.9878 3.27323L29.9921 3.28595C30.0067 3.32863 30.0246 3.37009 30.0457 3.40995C30.0642 3.45104 30.0859 3.49062 30.1106 3.5283Z" fill="black" stroke="black" stroke-width="0.2"/>
<path d="M27.0794 3.52539L27.0792 3.52552L27.0833 3.53121C27.1095 3.56843 27.1389 3.60339 27.171 3.63569C27.2039 3.67102 27.241 3.70216 27.2815 3.72842L27.2813 3.72879L27.2895 3.73311L27.3921 3.78685L27.392 3.78716L27.3997 3.79042C27.4444 3.80926 27.4912 3.82289 27.539 3.83104L27.5473 3.83246H27.5558H27.6673C27.7122 3.8374 27.7575 3.83716 27.8023 3.83174L27.8023 3.83186L27.8071 3.83104C27.8549 3.82289 27.9016 3.80926 27.9464 3.79042L27.9465 3.79074L27.9539 3.78685L28.0565 3.73311L28.0568 3.73365L28.066 3.72748C28.1052 3.70108 28.1422 3.67151 28.1765 3.63905L28.1766 3.6391L28.179 3.63658C28.3097 3.50405 28.3832 3.32557 28.3837 3.13952C28.3863 3.09574 28.3863 3.05183 28.3835 3.00805L28.3844 3.008L28.3818 2.9948C28.3635 2.90264 28.3265 2.81518 28.2733 2.73777L28.2734 2.73765L28.2694 2.73249L28.1961 2.63967L28.1907 2.63279L28.1841 2.62695C28.1507 2.59717 28.1148 2.57014 28.077 2.54615C28.0395 2.51773 27.9983 2.49444 27.9545 2.47691L27.9547 2.47647L27.9453 2.47373L27.8281 2.43953L27.8282 2.43914L27.8193 2.43739C27.7162 2.41722 27.6099 2.42016 27.508 2.44599C27.4062 2.47182 27.3114 2.51991 27.2304 2.58679C27.1494 2.65366 27.0842 2.73767 27.0395 2.83276C26.9953 2.92686 26.9723 3.0295 26.9721 3.13343C26.9696 3.17555 26.9697 3.21777 26.9723 3.25988L26.9729 3.2696L26.9754 3.27902C26.9866 3.32202 27.0012 3.36407 27.019 3.40479C27.0359 3.44655 27.0561 3.48688 27.0794 3.52539Z" fill="black" stroke="black" stroke-width="0.2"/>
<path d="M3.75431 23.6602L3.75382 23.6607L3.76269 23.6682L3.85551 23.7463L3.86144 23.7513L3.86807 23.7553C3.90655 23.7787 3.94685 23.7989 3.98857 23.8157C4.0314 23.8345 4.07632 23.8481 4.12237 23.8562L4.12234 23.8564L4.12809 23.8571C4.17249 23.8623 4.21731 23.8627 4.26178 23.8584C4.30481 23.8627 4.3482 23.8622 4.39116 23.857L4.39117 23.8572L4.39596 23.8563C4.44379 23.8482 4.49052 23.8346 4.53523 23.8157L4.53537 23.816L4.54281 23.8121L4.6454 23.7584L4.65507 23.7533L4.66342 23.7463L4.75624 23.6682L4.75647 23.6684L4.76246 23.6624C4.89534 23.5299 4.9708 23.3504 4.97261 23.1627L4.97258 23.1603C4.9699 22.9719 4.895 22.7918 4.76335 22.6571L4.76337 22.657L4.76183 22.6555C4.67856 22.5739 4.57673 22.5137 4.46508 22.4801C4.35342 22.4465 4.23528 22.4405 4.1208 22.4626L4.12069 22.4621L4.11066 22.4652L3.99829 22.4994L3.99807 22.4986L3.98678 22.5037C3.94449 22.5225 3.9038 22.5447 3.8651 22.57L3.86489 22.5697L3.85796 22.5752L3.76514 22.6484L3.76456 22.6477L3.75501 22.6576C3.62549 22.7924 3.55258 22.9716 3.55124 23.1585C3.54875 23.2007 3.54881 23.243 3.55142 23.2852L3.55216 23.2971L3.55569 23.3085C3.56915 23.3521 3.58518 23.3949 3.60368 23.4365C3.62204 23.4785 3.64476 23.5184 3.67147 23.5556C3.69604 23.5928 3.72376 23.6278 3.75431 23.6602Z" fill="black" stroke="black" stroke-width="0.2"/>
<path d="M3.75685 26.6918L3.75732 26.6922C3.89081 26.8227 4.06887 26.8974 4.25533 26.9014C4.3005 26.9064 4.34612 26.9062 4.39126 26.9007L4.39127 26.9009L4.39606 26.9C4.44389 26.8919 4.49062 26.8783 4.53533 26.8594L4.53547 26.8597L4.54291 26.8559L4.6455 26.8021L4.65517 26.797L4.66352 26.79L4.75634 26.7118L4.75658 26.7121L4.76266 26.706C4.79532 26.6734 4.82513 26.638 4.85178 26.6002L4.85198 26.6004L4.85559 26.5944C4.87879 26.5561 4.89889 26.5161 4.9157 26.4746C4.93544 26.4313 4.94926 26.3855 4.95678 26.3385L4.95685 26.3385L4.95731 26.3347C4.96276 26.2896 4.96297 26.2439 4.95793 26.1988C4.95394 26.0123 4.87922 25.8343 4.7488 25.7008L4.74881 25.7007L4.74727 25.6992C4.664 25.6176 4.56217 25.5574 4.45052 25.5238C4.33886 25.4902 4.22072 25.4842 4.10624 25.5063L4.10614 25.5058L4.09609 25.5089L3.98373 25.5431L3.98366 25.5428L3.97709 25.5453C3.93203 25.5626 3.88939 25.5856 3.85023 25.6138C3.81005 25.638 3.77319 25.6674 3.74059 25.7012L3.74058 25.7012L3.73975 25.7021C3.70927 25.7344 3.68161 25.7694 3.65709 25.8064C3.62827 25.8461 3.60479 25.8894 3.58725 25.9352L3.68064 25.9709L3.58752 25.9345C3.57134 25.9758 3.5584 26.0184 3.5488 26.0617L3.54712 26.0693L3.54664 26.0771C3.54386 26.1214 3.54383 26.1658 3.54654 26.2101C3.55252 26.3916 3.62776 26.564 3.75685 26.6918Z" fill="black" stroke="black" stroke-width="0.2"/>
<path d="M5.27216 25.1781L5.272 25.1783L5.27719 25.1827L5.37001 25.2608L5.37909 25.2685L5.38971 25.2738L5.49719 25.3275L5.49716 25.3276L5.49999 25.3289C5.54401 25.3492 5.59061 25.3634 5.63849 25.371L5.63849 25.3711L5.64177 25.3715C5.68654 25.3771 5.7318 25.3776 5.77666 25.3729C5.81956 25.3772 5.86282 25.3767 5.90565 25.3716L5.90566 25.3716L5.90943 25.371C5.95647 25.3635 6.00227 25.3497 6.04559 25.33C6.08705 25.3132 6.1271 25.2931 6.16536 25.2699L6.17198 25.2658L6.17791 25.2608L6.27074 25.1827L6.27097 25.183L6.27706 25.1769C6.30972 25.1442 6.33954 25.1088 6.36618 25.071L6.36642 25.0712L6.37034 25.0646C6.39206 25.0283 6.41174 24.9907 6.42927 24.9521L6.4293 24.9522L6.43038 24.9496C6.44922 24.9049 6.46285 24.8582 6.471 24.8103L6.47112 24.8103L6.4717 24.8055C6.47716 24.7604 6.47737 24.7148 6.47232 24.6696C6.46834 24.4831 6.39362 24.3051 6.26319 24.1716L6.26321 24.1716L6.26167 24.1701C6.1784 24.0884 6.07657 24.0282 5.96492 23.9946C5.85326 23.961 5.73512 23.9551 5.62064 23.9772L5.62053 23.9766L5.6105 23.9797L5.49813 24.0139L5.49806 24.0137L5.49149 24.0162C5.44569 24.0337 5.4024 24.0572 5.36274 24.086C5.32566 24.1105 5.29074 24.1382 5.25838 24.1687L5.2583 24.1686L5.25483 24.1722C5.22368 24.2046 5.19568 24.2399 5.1712 24.2776C5.14251 24.3172 5.11913 24.3604 5.10165 24.406L5.10164 24.406L5.10129 24.407C5.08625 24.4474 5.07367 24.4888 5.0636 24.5308L5.06292 24.5307L5.06154 24.5423C5.05626 24.5868 5.05583 24.6317 5.06024 24.6762C5.05593 24.7192 5.05637 24.7626 5.06156 24.8055L5.061 24.8056L5.06339 24.8159C5.07338 24.8594 5.08588 24.9022 5.10081 24.9443L5.10357 24.952L5.10756 24.9592C5.13007 24.9999 5.15687 25.038 5.18747 25.0729C5.21118 25.1114 5.23963 25.1467 5.27216 25.1781Z" fill="black" stroke="black" stroke-width="0.2"/>
<path d="M3.34084 24.302L3.33696 24.2956L3.33216 24.2898C3.32756 24.2843 3.32191 24.2772 3.31549 24.2691C3.29718 24.246 3.27257 24.215 3.24788 24.1903L3.24795 24.1902L3.24473 24.1873C3.10827 24.0623 2.9299 23.9929 2.74481 23.9929C2.55973 23.9929 2.38136 24.0623 2.24489 24.1873L2.23895 24.1927L2.23396 24.1991L2.16068 24.2919L2.16049 24.2917L2.15659 24.2974C2.13001 24.3364 2.1086 24.3786 2.09288 24.423C2.07313 24.4643 2.05827 24.5078 2.0486 24.5526L2.04698 24.5601L2.04652 24.5678C2.04399 24.6104 2.04388 24.6531 2.04618 24.6957C2.04387 24.7369 2.04399 24.7781 2.04654 24.8193L2.047 24.8266L2.04853 24.8339C2.05847 24.8806 2.07351 24.9261 2.09337 24.9695C2.10993 25.0115 2.13104 25.0515 2.15633 25.0889L2.15611 25.0891L2.16068 25.0949L2.23396 25.1877L2.24026 25.1957L2.24804 25.2022L2.34086 25.2804L2.34994 25.288L2.36055 25.2934L2.46803 25.3471L2.46798 25.3472L2.47235 25.3491C2.51565 25.3683 2.5611 25.3821 2.60771 25.3903L2.60768 25.3905L2.61344 25.3912C2.65784 25.3964 2.70266 25.3968 2.74713 25.3924C2.79016 25.3968 2.83355 25.3963 2.8765 25.3911L2.87652 25.3912L2.88131 25.3904C2.92914 25.3823 2.97587 25.3686 3.02058 25.3498L3.02072 25.3501L3.02816 25.3462L3.13075 25.2925L3.14042 25.2874L3.14876 25.2804L3.24159 25.2022L3.24176 25.2025L3.24709 25.1972C3.31388 25.1319 3.36694 25.0539 3.40315 24.9678C3.4386 24.8835 3.45719 24.7931 3.45791 24.7016C3.46292 24.6552 3.4627 24.6084 3.45725 24.562L3.45627 24.5537L3.45392 24.5456C3.44079 24.5007 3.42235 24.4575 3.39901 24.417C3.3826 24.3772 3.36316 24.3388 3.34084 24.302Z" fill="black" stroke="black" stroke-width="0.2"/>
</svg>
