<svg width="241" height="179" viewBox="0 0 241 179" fill="none" xmlns="http://www.w3.org/2000/svg">
<g clip-path="url(#clip0_268_90)">
<path d="M90.1848 30.0866C97.2754 36.0106 105.18 31.0509 112.756 30.672C116.269 30.4962 119.776 31.342 123.238 31.9728C126.525 32.5717 129.799 33.4426 132.804 34.928C136.079 36.4903 138.865 38.9156 140.861 41.9424C141.257 42.561 141.855 42.1042 141.851 41.3647C141.803 33.5116 138.402 34.1476 134.852 34.7267C131.476 35.2773 128.607 31.9328 125.276 31.213C121.79 30.5127 118.267 30.0114 114.724 29.7117C110.884 29.331 107.033 29.0726 103.173 28.9368C98.8453 28.7843 94.5158 28.7861 90.1848 28.942C89.4492 28.9681 89.4457 30.1129 90.1848 30.0866Z" fill="#7B1B6F"/>
<path d="M66.2685 93.2622C66.3697 93.3707 66.4249 93.5141 66.4222 93.6624C66.4196 93.8107 66.3595 93.9522 66.2544 94.057C66.1494 94.1619 66.0077 94.2219 65.8592 94.2246C65.7107 94.2272 65.567 94.1721 65.4583 94.071C60.7732 90.061 56.088 86.0536 51.4029 82.0487C51.3975 82.0425 51.391 82.0373 51.3838 82.0334C51.0584 81.7896 50.7506 81.5231 50.4628 81.236C46.1025 80.7286 41.3103 79.0498 36.7704 78.3211C32.7617 78.9163 28.7644 79.6259 24.7442 80.1525C21.2415 80.6385 17.7102 80.8909 14.1739 80.9079C11.2963 80.8927 12.1289 73.5274 9.51879 72.1692C6.80553 70.7575 1.36428 75.326 0.668761 72.4721C0.325123 71.011 0.10146 69.5245 0 68.0271V58.7214C0.370685 54.6694 6.83227 55.9194 9.90094 53.0921C14.5058 48.8494 16.0694 38.8965 21.9621 38.7782C28.9845 38.6303 36.0092 38.9375 42.9918 39.6978C48.6858 40.3235 54.6741 40.9301 59.9401 43.3529C62.1986 44.3945 64.3271 50.419 65.8825 52.3763C67.6576 54.6628 68.6622 57.4515 68.7524 60.3429C69.0314 66.4819 66.2341 72.0982 64.7017 77.8938C63.3718 82.911 62.6228 88.9927 66.2685 93.2622Z" fill="#F2F2F2"/>
<path d="M51.9353 82.6365C56.6852 86.7013 61.4358 90.7654 66.1871 94.8288C66.2958 94.93 66.4396 94.9851 66.5883 94.9825C66.7369 94.9799 66.8787 94.9198 66.9838 94.8148C67.0889 94.7099 67.1491 94.5683 67.1517 94.4199C67.1543 94.2715 67.0991 94.128 66.9977 94.0194C63.3523 89.7531 64.1014 83.6712 65.4303 78.6512C66.9646 72.855 69.7618 67.2407 69.4818 61.1033C69.393 58.2111 68.3879 55.4215 66.611 53.1356C65.0048 51.2121 62.9704 49.6902 60.6702 48.6914C55.4044 46.2686 49.4172 45.6593 43.7206 45.0351C36.7389 44.2742 29.7151 43.9666 22.6935 44.1143C16.799 44.2353 9.90376 44.3428 5.29916 48.5868C1.1057 52.4518 0.532937 58.5298 0.573376 63.8961C0.596802 67.0051 0.656545 70.1985 1.39681 73.2327C2.09269 76.0849 3.60174 78.863 6.31586 80.2743C8.92645 81.6317 12.0279 81.653 14.9028 81.6668C18.4391 81.6519 21.9704 81.3989 25.4725 80.9094C32.482 79.994 39.4244 78.5154 46.4905 78.0686C48.2197 77.9593 49.954 77.9106 51.6865 77.9468C52.4245 77.9622 52.4244 76.8176 51.6865 76.8022C44.816 76.6588 38.0161 77.8368 31.2562 78.9096C24.7177 79.9472 18.0337 80.9253 11.397 80.4004C9.94211 80.3324 8.51155 80.002 7.17457 79.4251C5.88331 78.8125 4.79072 77.8495 4.02172 76.6462C2.29393 73.9598 1.96657 70.5945 1.81732 67.4604C1.64706 64.748 1.67228 62.0269 1.89277 59.3181C2.14741 56.6917 2.76063 54.0276 4.16141 51.7602C7.35667 46.588 13.817 44.4358 19.3307 45.3649C25.5396 46.4113 30.2889 51.3663 39.7633 45.7979C42.7374 44.0499 46.6346 46.4824 50.0472 46.9964C52.5975 47.3475 55.1131 47.9159 57.5663 48.6955C59.9267 49.4147 62.126 50.5818 64.0435 52.1329C66.0505 53.8275 67.4477 56.1308 68.0222 58.6917C69.3381 64.5892 66.7299 70.4758 65.0062 75.9948C63.4698 80.9144 62.1591 86.6922 64.2278 91.6562C64.7102 92.8098 65.3714 93.8804 66.1871 94.8288L66.9977 94.0194C62.2478 89.9545 57.4972 85.8905 52.7459 81.8271C52.1885 81.3501 51.374 82.1561 51.9353 82.6365Z" fill="#E6E6E6"/>
<path d="M31.6956 56.0054H14.4145C14.256 56.0054 14.1039 55.9425 13.9918 55.8306C13.8796 55.7186 13.8167 55.5668 13.8167 55.4085C13.8167 55.2501 13.8796 55.0983 13.9918 54.9864C14.1039 54.8744 14.256 54.8115 14.4145 54.8115H31.6956C31.8541 54.8115 32.0062 54.8744 32.1183 54.9864C32.2304 55.0983 32.2934 55.2501 32.2934 55.4085C32.2934 55.5668 32.2304 55.7186 32.1183 55.8306C32.0062 55.9425 31.8541 56.0054 31.6956 56.0054Z" fill="#383433"/>
<path d="M31.6956 68.7349H14.4145C14.336 68.7349 14.2583 68.7194 14.1857 68.6894C14.1132 68.6594 14.0473 68.6155 13.9918 68.56C13.9362 68.5046 13.8922 68.4388 13.8622 68.3664C13.8321 68.294 13.8167 68.2163 13.8167 68.138C13.8167 68.0596 13.8321 67.9819 13.8622 67.9095C13.8922 67.8371 13.9362 67.7713 13.9918 67.7158C14.0473 67.6604 14.1132 67.6164 14.1857 67.5864C14.2583 67.5565 14.336 67.541 14.4145 67.541H31.6956C31.8541 67.541 32.0062 67.6039 32.1183 67.7158C32.2304 67.8278 32.2934 67.9796 32.2934 68.138C32.2934 68.2963 32.2304 68.4481 32.1183 68.56C32.0062 68.672 31.8541 68.7349 31.6956 68.7349Z" fill="#383433"/>
<path d="M45.7305 62.3743H14.4145C14.256 62.3743 14.1039 62.3114 13.9918 62.1995C13.8796 62.0875 13.8167 61.9357 13.8167 61.7774C13.8167 61.619 13.8796 61.4672 13.9918 61.3552C14.1039 61.2433 14.256 61.1804 14.4145 61.1804H45.7305C45.889 61.1804 46.0411 61.2433 46.1532 61.3552C46.2654 61.4672 46.3284 61.619 46.3284 61.7774C46.3284 61.9357 46.2654 62.0875 46.1532 62.1995C46.0411 62.3114 45.889 62.3743 45.7305 62.3743Z" fill="#383433"/>
<path d="M85.3759 122.259C85.4771 122.368 85.5323 122.511 85.5296 122.659C85.527 122.808 85.4669 122.949 85.3618 123.054C85.2568 123.159 85.1151 123.219 84.9666 123.222C84.8181 123.224 84.6744 123.169 84.5657 123.068C79.8806 119.058 75.1954 115.051 70.5103 111.046C70.5049 111.039 70.4984 111.034 70.4912 111.03C70.1658 110.787 69.858 110.52 69.5702 110.233C65.2099 109.726 60.4177 108.047 55.8778 107.318C51.8691 107.913 47.1075 112.438 43.0873 112.965C39.5846 113.451 36.0533 113.703 32.517 113.72C29.6394 113.705 30.472 104.432 27.8619 103.074C25.1486 101.662 20.4717 104.323 19.7762 101.469C19.4208 100.015 17.666 98.5235 17.5514 97.0241V87.7183C17.9221 83.6664 20.6092 79.6526 23.6779 76.8253C28.2828 72.5826 35.1768 72.472 41.0695 72.3537C48.0919 72.2058 55.1166 72.5129 62.0992 73.2732C67.7932 73.8989 73.7815 74.5056 79.0475 76.9284C81.3478 77.9281 83.3826 79.4501 84.9899 81.3733C86.765 83.6597 87.7696 86.4484 87.8599 89.3399C88.1388 95.4788 85.3415 101.095 83.8091 106.891C82.4792 111.908 81.7302 117.99 85.3759 122.259Z" fill="#F2F2F2"/>
<path d="M71.0427 111.634C75.7927 115.698 80.5433 119.763 85.2945 123.826C85.4032 123.927 85.5471 123.982 85.6957 123.98C85.8443 123.977 85.9861 123.917 86.0912 123.812C86.1963 123.707 86.2565 123.565 86.2591 123.417C86.2617 123.269 86.2065 123.125 86.1052 123.016C82.4597 118.75 83.2088 112.668 84.5377 107.648C86.072 101.852 88.8692 96.2378 88.5892 90.1003C88.5004 87.2081 87.4953 84.4186 85.7185 82.1326C84.1122 80.2091 82.0778 78.6872 79.7776 77.6885C74.5118 75.2657 68.5247 74.6564 62.8281 74.0322C55.8464 73.2713 48.8225 72.9637 41.8009 73.1114C35.9064 73.2324 29.0112 73.3399 24.4066 77.5838C20.2131 81.4488 19.6404 87.5269 19.6808 92.8931C19.7042 96.0022 19.764 99.1955 20.5042 102.23C21.2001 105.082 22.7092 107.86 25.4233 109.271C28.0339 110.629 31.1353 110.65 34.0102 110.664C37.5465 110.649 41.0778 110.396 44.58 109.907C51.5894 108.991 58.5318 107.512 65.598 107.066C67.3271 106.956 69.0614 106.908 70.7939 106.944C71.5319 106.959 71.5318 105.815 70.7939 105.799C63.9234 105.656 57.1235 106.834 50.3636 107.907C43.8252 108.944 37.1412 109.922 30.5044 109.397C29.0495 109.329 27.619 108.999 26.282 108.422C24.9907 107.81 23.8981 106.847 23.1291 105.643C21.4014 102.957 21.074 99.5916 20.9247 96.4575C20.7545 93.7451 20.7797 91.0239 21.0002 88.3152C21.2548 85.6887 21.8681 83.0247 23.2688 80.7572C26.4641 75.5851 33.7487 71.3211 38.4381 74.362C43.7958 77.8363 50.6481 77.9865 58.8707 74.7949C62.0873 73.5465 65.742 75.4795 69.1546 75.9935C71.7049 76.3446 74.2205 76.913 76.6737 77.6925C79.0341 78.4118 81.2334 79.5789 83.1509 81.1299C85.158 82.8246 86.5552 85.1278 87.1297 87.6887C88.4456 93.5862 85.8373 99.4729 84.1137 104.992C82.5772 109.911 81.2665 115.689 83.3352 120.653C83.8176 121.807 84.4788 122.877 85.2945 123.826L86.1052 123.016C81.3552 118.952 76.6046 114.888 71.8534 110.824C71.296 110.347 70.4814 111.153 71.0427 111.634Z" fill="#E6E6E6"/>
<path d="M50.803 85.0025H33.522C33.3634 85.0025 33.2113 84.9396 33.0992 84.8276C32.9871 84.7157 32.9241 84.5638 32.9241 84.4055C32.9241 84.2472 32.9871 84.0954 33.0992 83.9834C33.2113 83.8715 33.3634 83.8086 33.522 83.8086H50.803C50.9615 83.8086 51.1136 83.8715 51.2257 83.9834C51.3379 84.0954 51.4009 84.2472 51.4009 84.4055C51.4009 84.5638 51.3379 84.7157 51.2257 84.8276C51.1136 84.9396 50.9615 85.0025 50.803 85.0025Z" fill="#383433"/>
<path d="M50.803 97.732H33.522C33.3634 97.732 33.2113 97.6691 33.0992 97.5571C32.9871 97.4452 32.9241 97.2933 32.9241 97.135C32.9241 96.9767 32.9871 96.8249 33.0992 96.7129C33.2113 96.601 33.3634 96.5381 33.522 96.5381H50.803C50.9615 96.5381 51.1136 96.601 51.2257 96.7129C51.3379 96.8249 51.4009 96.9767 51.4009 97.135C51.4009 97.2933 51.3379 97.4452 51.2257 97.5571C51.1136 97.6691 50.9615 97.732 50.803 97.732Z" fill="#383433"/>
<path d="M64.8379 91.3714H33.522C33.3634 91.3714 33.2113 91.3085 33.0992 91.1965C32.9871 91.0846 32.9241 90.9327 32.9241 90.7744C32.9241 90.6161 32.9871 90.4643 33.0992 90.3523C33.2113 90.2404 33.3634 90.1775 33.522 90.1775H64.8379C64.9965 90.1775 65.1485 90.2404 65.2607 90.3523C65.3728 90.4643 65.4358 90.6161 65.4358 90.7744C65.4358 90.9327 65.3728 91.0846 65.2607 91.1965C65.1485 91.3085 64.9965 91.3714 64.8379 91.3714Z" fill="#383433"/>
<path d="M179.572 143.426H131.279C130.836 143.426 130.411 143.25 130.097 142.937C129.784 142.625 129.608 142.2 129.608 141.758C129.608 141.315 129.784 140.891 130.097 140.578C130.411 140.265 130.836 140.09 131.279 140.09H179.572C180.016 140.09 180.44 140.265 180.754 140.578C181.067 140.891 181.243 141.315 181.243 141.758C181.243 142.2 181.067 142.625 180.754 142.937C180.44 143.25 180.016 143.426 179.572 143.426Z" fill="#F2F2F2"/>
<path d="M179.572 179H131.279C130.836 179 130.411 178.824 130.097 178.511C129.784 178.199 129.608 177.774 129.608 177.332C129.608 176.889 129.784 176.465 130.097 176.152C130.411 175.839 130.836 175.664 131.279 175.664H179.572C180.016 175.664 180.44 175.839 180.754 176.152C181.067 176.465 181.243 176.889 181.243 177.332C181.243 177.774 181.067 178.199 180.754 178.511C180.44 178.824 180.016 179 179.572 179Z" fill="#F2F2F2"/>
<path d="M218.794 161.225H131.279C131.059 161.225 130.842 161.182 130.639 161.098C130.436 161.015 130.251 160.892 130.096 160.737C129.94 160.582 129.817 160.398 129.733 160.195C129.649 159.993 129.605 159.776 129.605 159.556C129.605 159.337 129.649 159.12 129.733 158.917C129.817 158.715 129.94 158.531 130.096 158.376C130.251 158.221 130.436 158.098 130.639 158.014C130.842 157.931 131.059 157.888 131.279 157.888H218.794C219.237 157.889 219.661 158.065 219.974 158.378C220.287 158.69 220.463 159.114 220.463 159.556C220.463 159.998 220.287 160.422 219.974 160.735C219.661 161.048 219.237 161.224 218.794 161.225Z" fill="#F2F2F2"/>
<path d="M104.021 159.351L106.764 161.929L118.252 152.356L114.203 148.551L104.021 159.351Z" fill="#FFB6B6"/>
<path d="M109.016 170.5L107.492 163.402L109.339 161.442L108.345 160.611L105.256 158.041L104.501 157.409L97.396 163.789L99.4554 165.722L101.651 164.128L100.76 166.95L106.214 172.076C106.476 172.322 106.809 172.478 107.166 172.521C107.522 172.564 107.883 172.493 108.196 172.317C108.509 172.14 108.757 171.869 108.905 171.542C109.052 171.216 109.091 170.85 109.016 170.5Z" fill="#A24B96"/>
<path d="M90.6461 169.321L94.3709 169.886L98.3758 155.491L92.8786 154.657L90.6461 169.321Z" fill="#FFB6B6"/>
<path d="M101.101 175.661L95.8072 170.685L96.2124 168.024L94.921 167.904L90.917 167.542L89.9358 167.45L87.72 176.731L90.5147 177.153L91.4139 174.595L92.2871 177.423L99.6928 178.548C100.048 178.601 100.411 178.541 100.729 178.374C101.047 178.207 101.303 177.944 101.46 177.621C101.617 177.299 101.667 176.935 101.603 176.582C101.538 176.23 101.362 175.907 101.101 175.661Z" fill="#A24B96"/>
<path d="M126.48 67.061L137.162 86.1625C137.162 86.1625 136.717 125.448 138.136 126.905C139.556 128.362 140.841 129.669 139.556 129.657C138.271 129.645 138.685 138.939 138.685 138.939L114.992 157.253L109.26 152.674L123.64 134.952L115.698 98.6762C115.698 98.6762 109.993 132.982 108.965 134.008C107.936 135.035 107.316 135.028 108.397 136.058C109.479 137.088 108.397 139.419 108.397 139.419L97.1249 162.777L91.0105 162.007C91.0105 162.007 92.0705 142.938 95.7618 134.752V96.0653C95.4837 99.3823 108.489 65.8109 100.536 68.3306C103.052 67.5334 126.48 67.061 126.48 67.061Z" fill="#A24B96"/>
<path d="M121.58 21.5403H112.749L111.499 26.5334L104.709 28.408C104.709 28.408 101.35 50.6442 104.171 52.4378C106.992 54.2313 105.025 59.8418 105.025 59.8418C105.025 59.8418 98.0006 67.4159 98.8435 68.538C99.6864 69.6601 101.396 67.9528 99.4176 69.9285C97.4386 71.9043 96.3147 71.6238 96.8767 72.1848C97.2241 72.5407 97.4935 72.965 97.6675 73.4306L95.244 79.7309C95.244 79.7309 108.116 82.2837 114.578 78.6369C121.04 74.9901 135.37 82.0032 135.37 82.0032C135.37 82.0032 134.633 78.321 134.018 77.7776C133.403 77.2343 131.969 78.6082 132.967 76.7991C133.965 74.9901 134.808 75.8316 133.965 74.9901C133.122 74.1485 129.469 62.9276 129.469 62.9276C129.469 62.9276 126.66 56.7561 129.75 54.2313C132.841 51.7066 134.018 43.4257 134.018 43.4257L130.313 28.408L124.131 27.0206L121.58 21.5403Z" fill="#E6E6E6"/>
<path d="M86.6229 78.8728L88.7439 70.385L84.0565 68.4988L82.1338 77.5523C81.6952 77.8763 81.3558 78.3161 81.1538 78.8221C80.9518 79.3282 80.8952 79.8805 80.9903 80.4169C81.0854 80.9534 81.3286 81.4527 81.6923 81.8587C82.0561 82.2647 82.5261 82.5614 83.0495 82.7154C83.5729 82.8694 84.129 82.8745 84.6552 82.7303C85.1813 82.586 85.6568 82.2981 86.028 81.8988C86.3993 81.4996 86.6516 81.0049 86.7567 80.4703C86.8618 79.9357 86.8155 79.3825 86.6229 78.8728Z" fill="#FFB6B6"/>
<path d="M107.225 27.8404L107.086 27.8163C105.784 27.5931 104.448 27.6899 103.193 28.0984C101.937 28.5069 100.8 29.2147 99.8806 30.1606C97.4796 32.6269 86.7618 50.9679 87.1475 54.0332C87.5073 56.8918 87.6458 56.2559 86.3365 57.7154C85.0272 59.175 84.529 56.9523 84.5088 59.991C84.4887 63.0298 85.6516 63.0034 84.4155 63.7464C83.1794 64.4894 82.362 63.9718 82.5878 66.022C82.8136 68.0722 82.468 68.6162 82.3948 69.3327C82.3217 70.0493 80.547 74.6471 80.547 74.6471C80.547 74.6471 85.7702 76.0475 87.8766 78.1442C87.8766 78.1442 88.1162 72.9558 89.1796 72.4848C90.2429 72.0138 91.233 72.2594 90.9341 70.9258C90.6351 69.5921 89.1001 69.0015 90.9807 69.0481C92.8614 69.0947 95.7662 59.1095 95.7662 59.1095L108.327 36.2289L107.225 27.8404Z" fill="#E6E6E6"/>
<path d="M135.572 83.0774L135.949 74.3376L140.98 73.8562L140.251 83.0823C140.58 83.5173 140.78 84.0351 140.83 84.5776C140.88 85.1201 140.778 85.6657 140.534 86.1532C140.29 86.6407 139.916 87.0506 139.451 87.337C138.987 87.6233 138.452 87.7747 137.906 87.7741C137.361 87.7736 136.826 87.621 136.363 87.3337C135.899 87.0464 135.525 86.6356 135.282 86.1477C135.04 85.6597 134.938 85.1138 134.989 84.5715C135.04 84.0291 135.242 83.5117 135.572 83.0774Z" fill="#FFB6B6"/>
<path d="M130.313 28.3066L130.454 28.3232C131.765 28.4777 133.019 28.9489 134.107 29.6961C135.195 30.4433 136.084 31.444 136.697 32.6115C138.299 35.6564 143.366 56.2793 142.125 59.1095C140.968 61.7488 141.016 61.0998 141.857 62.8702C142.698 64.6406 143.807 62.6502 142.963 65.5699C142.119 68.4896 141.011 68.1349 141.986 69.1974C142.96 70.26 143.891 69.9951 143.092 71.8971C142.293 73.7992 142.47 74.4187 142.336 75.1266C142.203 75.8345 142.598 80.746 142.598 80.746C142.598 80.746 137.192 80.6097 134.576 82.0239C134.576 82.0239 135.821 76.9807 134.935 76.2279C134.049 75.4751 133.03 75.4302 133.695 74.236C134.361 73.0418 136 72.9101 134.184 72.4222C132.367 71.9344 132.418 61.5366 132.418 61.5366L126.874 36.0388L130.313 28.3066Z" fill="#E6E6E6"/>
<path d="M97.0992 15.6489C97.0291 18.6584 98.1556 21.5725 99.7739 24.132C100.315 22.6458 101.072 21.2473 102.021 19.9815C101.566 22.786 102.05 25.6618 103.398 28.1639C103.445 28.1979 103.495 28.2294 103.545 28.2583C104.864 29.0506 106.537 29.3714 107.964 28.7993C105.015 25.6262 104.64 20.3688 107.112 16.8097C107.812 15.7998 108.717 14.9066 109.15 13.7573C109.835 11.9236 109.177 9.90454 108.762 7.99264C108.374 6.21324 108.306 4.09574 109.502 2.79166C109.374 2.60942 109.2 2.46435 108.998 2.37133C108.795 2.27831 108.572 2.24068 108.35 2.26228C107.613 2.36625 107.076 3.00601 106.734 3.66493C106.393 4.32382 106.167 5.05411 105.691 5.62321C104.809 6.68845 103.307 6.94029 102.041 7.50171C98.9754 8.865 97.1727 12.3001 97.0992 15.6489Z" fill="#A24B96"/>
<path d="M122.904 13.9283C122.729 13.3161 123.936 17.0582 123.354 17.1257C120.7 17.4297 117.057 19.0121 115.209 19.7503C115.125 19.7406 115.042 19.731 114.961 19.7189C114.763 19.6972 114.57 19.6659 114.379 19.6297C110.075 18.8167 108.42 12.216 108.42 12.1557C108.42 11.859 109.133 3.70905 110.257 3.58843C110.552 3.55645 110.849 3.54035 111.146 3.54018H113.934C114.511 3.41604 115.096 3.3314 115.684 3.28687H115.689C121.303 2.85986 125.729 6.27591 125.315 10.4326C125.313 10.4374 125.308 10.4423 125.306 10.4471C125.186 10.6256 125.08 10.7945 124.987 10.9561C124.897 11.1081 124.821 11.2529 124.755 11.3904C124.243 12.4519 125.558 13.7876 124.686 14.0369C123.526 14.3684 127.737 25.2669 123.146 25.2669C125.379 25.9008 123.387 15.617 122.904 13.9283Z" fill="#A24B96"/>
<path d="M117.893 20.3229C121.539 20.3229 124.495 17.3719 124.495 13.7315C124.495 10.0912 121.539 7.14014 117.893 7.14014C114.247 7.14014 111.291 10.0912 111.291 13.7315C111.291 17.3719 114.247 20.3229 117.893 20.3229Z" fill="#FFB6B6"/>
<path d="M125.315 10.7921C125.205 10.85 125.097 10.903 124.987 10.9561C124.872 11.0116 124.757 11.0671 124.642 11.1178C122.431 12.119 120.632 12.2299 119.54 10.7921C119.511 10.0355 119.341 9.29104 119.038 8.59673C119.092 9.37263 118.887 10.1444 118.456 10.7921H116.257C113.993 12.2926 112.83 12.4495 114.402 17.3757C114.84 18.7484 116.582 26.7361 115.897 27.9207C115.698 27.899 113.589 19.1499 113.398 19.1138C109.094 18.3008 106.36 11.2215 106.71 10.821C106.708 9.68222 106.97 8.55844 107.476 7.53766C108.116 6.2444 109.113 5.16112 110.35 4.41592C111.087 4.05898 111.856 3.77067 112.646 3.55467C112.666 3.54984 112.683 3.54501 112.703 3.54019C112.945 3.47505 113.192 3.41474 113.439 3.36407C113.95 3.25639 114.467 3.17826 114.987 3.13007C115.023 3.12766 115.06 3.12524 115.094 3.12524C115.302 3.12573 115.506 3.18153 115.684 3.28688C115.687 3.28688 115.687 3.28929 115.689 3.28929C115.817 3.36381 115.929 3.46305 116.017 3.5812C116.174 3.77998 116.258 4.02566 116.257 4.27841H118.705C118.796 4.27841 118.887 4.28082 118.977 4.28564C120.611 4.34138 122.165 5.00388 123.336 6.14347C124.506 7.28306 125.209 8.81772 125.306 10.4471C125.313 10.5629 125.315 10.6763 125.315 10.7921Z" fill="#A24B96"/>
<path d="M110.881 8.68492C113.283 8.68492 115.23 6.74073 115.23 4.34246C115.23 1.94418 113.283 0 110.881 0C108.478 0 106.531 1.94418 106.531 4.34246C106.531 6.74073 108.478 8.68492 110.881 8.68492Z" fill="#A24B96"/>
<path d="M152.208 135.177C152.386 135.185 152.561 135.139 152.712 135.044C152.862 134.949 152.979 134.81 153.048 134.646C153.116 134.483 153.133 134.302 153.095 134.128C153.057 133.955 152.967 133.797 152.836 133.677L152.777 133.441C152.785 133.422 152.793 133.403 152.801 133.384C152.98 132.962 153.279 132.602 153.662 132.35C154.046 132.097 154.495 131.964 154.954 131.965C155.413 131.967 155.861 132.104 156.242 132.359C156.624 132.615 156.921 132.977 157.096 133.4C157.799 135.09 158.694 136.782 158.914 138.568C159.011 139.358 158.97 140.158 158.793 140.934C160.443 137.34 161.3 133.434 161.306 129.48C161.306 128.488 161.251 127.496 161.14 126.51C161.049 125.702 160.922 124.9 160.76 124.103C159.876 119.779 157.977 115.727 155.219 112.279C153.884 111.552 152.805 110.434 152.126 109.075C151.88 108.587 151.707 108.066 151.61 107.528C151.761 107.547 152.178 105.258 152.064 105.118C152.274 104.8 152.65 104.642 152.879 104.332C154.019 102.789 155.589 103.058 156.409 105.155C158.16 106.037 158.177 107.5 157.102 108.908C156.419 109.803 156.325 111.015 155.725 111.973C155.787 112.052 155.851 112.129 155.913 112.208C157.041 113.656 158.024 115.211 158.848 116.85C158.647 115.013 158.887 113.155 159.546 111.429C160.214 109.82 161.466 108.465 162.569 107.074C162.86 106.7 163.256 106.421 163.707 106.272C164.157 106.123 164.642 106.111 165.099 106.237C165.557 106.362 165.966 106.621 166.277 106.979C166.587 107.338 166.784 107.78 166.843 108.25C166.845 108.27 166.847 108.291 166.849 108.311C166.686 108.404 166.525 108.502 166.368 108.605C166.171 108.737 166.019 108.924 165.93 109.144C165.842 109.364 165.822 109.605 165.873 109.836C165.925 110.067 166.045 110.277 166.218 110.439C166.39 110.601 166.608 110.706 166.843 110.742L166.867 110.746C166.808 111.336 166.705 111.92 166.558 112.493C167.973 117.955 164.919 119.945 160.558 120.034C160.461 120.083 160.368 120.133 160.271 120.18C161.099 122.522 161.619 124.963 161.817 127.439C161.928 128.901 161.922 130.368 161.797 131.828L161.804 131.777C162.12 130.153 162.988 128.688 164.26 127.629C166.15 126.079 168.82 125.508 170.859 124.262C171.076 124.123 171.328 124.049 171.585 124.049C171.843 124.048 172.095 124.121 172.313 124.259C172.53 124.397 172.703 124.594 172.812 124.827C172.921 125.06 172.961 125.319 172.927 125.574L172.919 125.628C172.615 125.752 172.319 125.894 172.033 126.055C171.869 126.147 171.709 126.245 171.552 126.348C171.355 126.48 171.202 126.668 171.114 126.887C171.025 127.107 171.005 127.348 171.057 127.579C171.108 127.81 171.228 128.02 171.401 128.182C171.574 128.344 171.792 128.45 172.026 128.486L172.05 128.489C172.067 128.492 172.082 128.494 172.099 128.497C171.58 129.735 170.851 130.874 169.945 131.865C169.06 136.634 165.261 137.086 161.197 135.697H161.195C160.749 137.632 160.103 139.515 159.267 141.316H152.38C152.356 141.24 152.334 141.161 152.311 141.084C152.949 141.124 153.589 141.086 154.217 140.971C153.706 140.345 153.195 139.714 152.684 139.088C152.673 139.077 152.662 139.064 152.652 139.051C152.393 138.731 152.131 138.413 151.872 138.093L151.872 138.092C151.858 137.11 151.971 136.13 152.208 135.177Z" fill="#F2F2F2"/>
<path d="M51.5801 178.481C51.58 178.541 51.5916 178.6 51.6144 178.655C51.6372 178.71 51.6707 178.76 51.713 178.803C51.7552 178.845 51.8054 178.878 51.8607 178.901C51.9159 178.924 51.9752 178.935 52.0349 178.935H240.545C240.666 178.935 240.782 178.887 240.867 178.802C240.952 178.717 241 178.602 241 178.481C241 178.361 240.952 178.245 240.867 178.16C240.782 178.075 240.666 178.027 240.545 178.027H52.0349C51.9752 178.027 51.9159 178.039 51.8607 178.061C51.8054 178.084 51.7552 178.117 51.713 178.16C51.6707 178.202 51.6372 178.252 51.6144 178.307C51.5916 178.362 51.58 178.421 51.5801 178.481Z" fill="#CCCCCC"/>
<path d="M136.943 81.0542C137.475 81.6142 136.669 82.3418 136.049 81.8618C130.877 77.8582 125.704 73.8571 120.532 69.8586C120.526 69.8523 120.519 69.8472 120.511 69.8434C120.154 69.6017 119.814 69.3357 119.494 69.0472C114.681 68.5406 109.39 66.8645 104.378 66.1369C99.9524 66.7312 95.5395 67.4397 91.1012 67.9654C87.2301 68.451 83.3332 68.7028 79.4318 68.7196C76.255 68.7044 72.8334 68.6854 69.9519 67.3292C66.9565 65.9198 65.2901 63.1466 64.5223 60.2972C64.1436 58.843 63.8965 57.3577 63.7839 55.8593V46.5684C64.1932 42.5229 65.442 38.5154 68.8297 35.6927C73.9135 31.4567 81.5243 31.3463 88.0298 31.2282C95.78 31.0804 103.532 31.387 111.246 32.1462C117.532 32.771 124.143 33.3767 129.957 35.7956C132.45 36.8355 134.8 38.2793 136.517 40.2335C138.45 42.4473 139.567 45.2532 139.686 48.1873C139.994 54.3165 136.906 59.9239 135.214 65.7103C133.746 70.7195 132.919 76.7916 136.943 81.0542Z" fill="#F37840"/>
<path d="M98.5717 41.5069H81.2906C81.2121 41.5069 81.1344 41.4914 81.0618 41.4614C80.9893 41.4314 80.9234 41.3875 80.8679 41.332C80.8123 41.2766 80.7683 41.2108 80.7383 41.1384C80.7082 41.0659 80.6927 40.9883 80.6927 40.9099C80.6927 40.8315 80.7082 40.7539 80.7383 40.6815C80.7683 40.6091 80.8123 40.5432 80.8679 40.4878C80.9234 40.4324 80.9893 40.3884 81.0618 40.3584C81.1344 40.3284 81.2121 40.313 81.2906 40.313H98.5717C98.7302 40.313 98.8823 40.3759 98.9944 40.4878C99.1066 40.5998 99.1695 40.7516 99.1695 40.9099C99.1695 41.0682 99.1066 41.2201 98.9944 41.332C98.8823 41.444 98.7302 41.5069 98.5717 41.5069Z" fill="white"/>
<path d="M98.5717 54.2364H81.2906C81.1321 54.2364 80.98 54.1735 80.8679 54.0615C80.7557 53.9496 80.6927 53.7977 80.6927 53.6394C80.6927 53.4811 80.7557 53.3293 80.8679 53.2173C80.98 53.1054 81.1321 53.0425 81.2906 53.0425H98.5717C98.7302 53.0425 98.8823 53.1054 98.9944 53.2173C99.1066 53.3293 99.1695 53.4811 99.1695 53.6394C99.1695 53.7977 99.1066 53.9496 98.9944 54.0615C98.8823 54.1735 98.7302 54.2364 98.5717 54.2364Z" fill="white"/>
<path d="M112.607 47.8758H81.2906C81.1321 47.8758 80.98 47.8129 80.8679 47.7009C80.7557 47.589 80.6927 47.4371 80.6927 47.2788C80.6927 47.1205 80.7557 46.9687 80.8679 46.8567C80.98 46.7448 81.1321 46.6819 81.2906 46.6819H112.607C112.765 46.6819 112.917 46.7448 113.029 46.8567C113.141 46.9687 113.204 47.1205 113.204 47.2788C113.204 47.4371 113.141 47.589 113.029 47.7009C112.917 47.8129 112.765 47.8758 112.607 47.8758Z" fill="white"/>
<path d="M140.861 41.9425C142.463 44.4942 143.369 47.4311 143.091 50.4584C142.852 53.0706 141.779 55.5272 140.605 57.8422C139.39 60.2413 138.028 62.5709 137.034 65.0758C135.942 67.8061 135.539 70.7622 135.859 73.6844C136.056 75.5818 136.439 77.4534 136.801 79.3244L137.903 85.0363L138.861 84.4795L123.011 70.7981C122.455 70.3186 121.641 71.1247 122.2 71.6075L138.051 85.2888C138.141 85.374 138.257 85.4276 138.381 85.4417C138.505 85.4558 138.63 85.4296 138.738 85.367C138.845 85.3044 138.93 85.2088 138.979 85.0944C139.028 84.98 139.038 84.8529 139.009 84.732C138.361 81.3761 137.595 78.0186 137.121 74.6331C136.848 72.9258 136.81 71.1895 137.007 69.4719C137.201 68.1627 137.546 66.8803 138.034 65.6499C139.935 60.6901 143.496 56.3514 144.182 50.959C144.612 47.5804 143.645 44.2231 141.851 41.3648C141.46 40.742 140.468 41.3159 140.861 41.9425Z" fill="#7B1B6F"/>
<path d="M124.013 65.7905L100.571 68.5594L88.85 69.9438C85.2792 70.3655 81.5579 70.9577 77.99 70.2114C71.9832 68.955 68.2535 63.5207 67.0801 57.7937C66.3538 54.2486 66.6109 50.5394 67.222 46.9977C67.5477 45.1095 67.9777 43.241 68.4422 41.3826C68.8563 39.7264 69.1651 37.9429 69.8805 36.3839C70.4514 35.1163 71.3009 33.9932 72.3659 33.0981C73.4309 32.2031 74.6842 31.5589 76.0326 31.2135C76.8749 31.0412 77.7283 30.9283 78.5864 30.8757C79.5505 30.7791 80.5153 30.6902 81.4809 30.6089C83.412 30.4465 85.3453 30.315 87.2809 30.2143C88.2485 30.164 89.2165 30.1214 90.1848 30.0865C90.9204 30.0596 90.9239 28.9149 90.1848 28.9419C86.1553 29.0891 82.1337 29.368 78.12 29.7785C76.4847 29.9467 74.9729 30.1897 73.4969 30.9545C72.2214 31.6205 71.1012 32.548 70.2096 33.6763C69.296 34.8402 68.6259 36.1755 68.2388 37.603C67.7113 39.4996 67.2325 41.415 66.7957 43.3344C65.9152 47.2034 65.2823 51.1912 65.5763 55.1688C66.0112 61.0518 68.8322 67.3283 74.3069 70.1291C77.5399 71.783 81.2291 71.8571 84.7717 71.5413C88.7224 71.1891 92.6621 70.6381 96.6009 70.1729L120.988 67.2924L124.013 66.9352C124.736 66.8497 124.745 65.704 124.013 65.7905Z" fill="#7B1B6F"/>
</g>
<defs>
<clipPath id="clip0_268_90">
<rect width="241" height="179" fill="white"/>
</clipPath>
</defs>
</svg>
