<svg width="242" height="36" viewBox="0 0 242 36" fill="none" xmlns="http://www.w3.org/2000/svg">
<path d="M123 20.3812C121.685 20.3812 120.619 19.3148 120.619 17.9998C120.619 16.6854 121.685 15.619 123 15.619C124.315 15.619 125.381 16.6854 125.381 17.9998C125.381 19.3147 124.315 20.3812 123 20.3812Z" fill="#6E2865"/>
<path d="M121.689 22.2161C121.833 21.6253 122.365 21.1861 123 21.1861C123.635 21.1861 124.167 21.6253 124.312 22.2161L126.937 30.8926C127.024 31.2242 127.071 31.571 127.071 31.9289C127.071 34.1777 125.249 36 123 36C120.752 36 118.929 34.1777 118.929 31.9289C118.929 31.571 118.976 31.2242 119.063 30.8926L121.689 22.2161Z" fill="#6E2865"/>
<path d="M124.312 13.7851C124.167 14.3758 123.635 14.8139 123 14.8139C122.365 14.8139 121.833 14.3758 121.689 13.7851L119.063 5.10698C118.976 4.77595 118.929 4.42917 118.929 4.07072C118.929 1.8229 120.752 4.41074e-05 123 4.41074e-05C125.248 4.41074e-05 127.071 1.8229 127.071 4.07072C127.071 4.42917 127.024 4.77595 126.937 5.10698L124.312 13.7851Z" fill="#6E2865"/>
<path d="M111.099 24.3329L119.092 20.0537C119.612 19.7386 120.298 19.8035 120.748 20.2522C121.196 20.7019 121.262 21.3878 120.947 21.9082L116.668 29.9006C116.495 30.1957 116.283 30.4745 116.029 30.7279C114.439 32.3179 111.862 32.3179 110.272 30.7279C108.682 29.1384 108.682 26.5607 110.272 24.9712C110.525 24.7183 110.804 24.505 111.099 24.3329Z" fill="#6E2865"/>
<path d="M134.901 11.6676L126.908 15.9468C126.388 16.2625 125.702 16.1965 125.253 15.7478C124.804 15.2981 124.738 14.6123 125.053 14.0918L129.333 6.09939C129.505 5.8038 129.717 5.52557 129.971 5.2728C131.561 3.68268 134.138 3.68268 135.728 5.2728C137.318 6.86172 137.318 9.43952 135.728 11.029C135.474 11.2823 135.197 11.495 134.901 11.6676Z" fill="#6E2865"/>
<path d="M118.784 16.6884C119.375 16.8331 119.814 17.3653 119.814 17.9998C119.814 18.6348 119.375 19.167 118.784 19.3117L110.107 21.9373C109.776 22.0244 109.429 22.0709 109.071 22.0709C106.823 22.0709 105 20.2481 105 17.9998C105 15.7515 106.823 13.9292 109.071 13.9292C109.429 13.9292 109.776 13.9761 110.107 14.0628L118.784 16.6884Z" fill="#6E2865"/>
<path d="M136.929 22.0709C136.571 22.0709 136.224 22.0245 135.893 21.9373L127.215 19.3116C126.625 19.1669 126.186 18.6348 126.186 17.9997C126.186 17.3652 126.625 16.8331 127.215 16.6884L135.893 14.0626C136.224 13.976 136.571 13.929 136.929 13.929C139.178 13.929 141 15.7513 141 17.9996C141 20.2486 139.178 22.0709 136.929 22.0709Z" fill="#6E2865"/>
<path d="M120.748 15.7478C120.298 16.1965 119.612 16.2625 119.092 15.9468L111.099 11.6676C110.804 11.495 110.526 11.2823 110.272 11.0289C108.682 9.43945 108.682 6.86165 110.272 5.27273C111.862 3.68261 114.439 3.68261 116.029 5.27273C116.282 5.52557 116.495 5.80373 116.667 6.09932L120.947 14.0917C121.262 14.6123 121.196 15.2981 120.748 15.7478Z" fill="#6E2865"/>
<path d="M125.253 20.2533C125.702 19.8036 126.388 19.7386 126.908 20.0537L134.901 24.3323C135.197 24.505 135.474 24.7172 135.728 24.9711C137.318 26.5606 137.318 29.1383 135.728 30.7278C134.138 32.3179 131.561 32.3179 129.971 30.7278C129.717 30.4744 129.505 30.1957 129.333 29.9006L125.053 21.9082C124.738 21.3878 124.804 20.702 125.253 20.2533Z" fill="#6E2865"/>
<rect x="152" y="15" width="90" height="3" fill="#333333"/>
<rect y="15" width="90" height="3" fill="#333333"/>
</svg>
