<svg width="12" height="11" viewBox="0 0 12 11" fill="none" xmlns="http://www.w3.org/2000/svg">
<path d="M2.67857 11H0.1875V3.64933H2.67857V11ZM1.41964 2.66596C0.642857 2.66596 0 2.05136 0 1.31383C0 0.305884 1.17857 -0.333305 2.14286 0.182963C2.59821 0.40422 2.86607 0.846735 2.86607 1.31383C2.86607 2.05136 2.22321 2.66596 1.41964 2.66596ZM11.9732 11H9.50893V7.43529C9.50893 6.57485 9.48214 5.49314 8.19643 5.49314C6.91071 5.49314 6.72321 6.40276 6.72321 7.36154V11H4.23214V3.64933H6.61607V4.65728H6.64286C6.99107 4.09185 7.79464 3.47724 9 3.47724C11.5179 3.47724 12 5.00146 12 6.96819V11H11.9732Z" fill="white"/>
</svg>
