<svg width="25" height="18" viewBox="0 0 25 18" fill="none" xmlns="http://www.w3.org/2000/svg">
<path fill-rule="evenodd" clip-rule="evenodd" d="M0 1.5C0 0.671573 0.699555 0 1.5625 0H23.4375C24.3004 0 25 0.671573 25 1.5C25 2.32843 24.3004 3 23.4375 3H1.5625C0.699555 3 0 2.32843 0 1.5ZM0 9C0 8.17157 0.699555 7.5 1.5625 7.5H23.4375C24.3004 7.5 25 8.17157 25 9C25 9.82843 24.3004 10.5 23.4375 10.5H1.5625C0.699555 10.5 0 9.82843 0 9ZM10.9375 16.5C10.9375 15.6716 11.6371 15 12.5 15H23.4375C24.3004 15 25 15.6716 25 16.5C25 17.3284 24.3004 18 23.4375 18H12.5C11.6371 18 10.9375 17.3284 10.9375 16.5Z" fill="black"/>
</svg>
