<svg width="512" height="512" viewBox="0 0 512 512" fill="none" xmlns="http://www.w3.org/2000/svg">
<path d="M462.925 130.801V445.536C462.925 468.914 443.991 487.849 420.613 487.849H120.368C96.99 487.849 78.0557 468.914 78.0557 445.536V66.4628C78.0557 43.0847 96.99 24.1504 120.368 24.1504H356.275C357.82 24.1504 359.269 24.73 360.332 25.7927L461.283 126.744C462.345 127.806 462.925 129.255 462.925 130.801Z" fill="black"/>
<path d="M420.613 492.679H120.368C94.3818 492.679 73.2256 471.523 73.2256 445.536V66.463C73.2256 40.4765 94.3818 19.3203 120.368 19.3203H356.275C359.124 19.3203 361.781 20.4023 363.742 22.373L464.693 123.324C466.664 125.275 467.755 127.932 467.755 130.801V445.536C467.755 471.523 446.599 492.679 420.613 492.679ZM120.368 28.9807C99.695 28.9807 82.886 45.7897 82.886 66.463V445.536C82.886 466.209 99.695 483.018 120.368 483.018H420.613C441.286 483.018 458.095 466.209 458.095 445.536V130.801C458.095 130.647 458.066 130.357 457.883 130.183L356.912 29.2029L120.368 28.9807Z" fill="black"/>
<path d="M433.944 128.386V445.536C433.944 451.093 432.849 456.595 430.723 461.728C428.596 466.862 425.48 471.526 421.551 475.455C417.622 479.385 412.957 482.501 407.823 484.628C402.69 486.754 397.188 487.849 391.631 487.849H91.3867C85.8301 487.849 80.328 486.754 75.1944 484.628C70.0608 482.501 65.3963 479.385 61.4672 475.455C57.5382 471.526 54.4215 466.862 52.2951 461.728C50.1687 456.595 49.0742 451.093 49.0742 445.536V66.4628C49.0742 55.2409 53.5321 44.4785 61.4672 36.5434C69.4024 28.6083 80.1647 24.1504 91.3867 24.1504H329.612C329.67 24.1504 329.728 24.1697 329.776 24.218L433.944 128.386Z" fill="white"/>
<path d="M391.631 492.679H91.3868C65.4004 492.679 44.2441 471.523 44.2441 445.536V66.463C44.2441 40.4765 65.4004 19.3203 91.3868 19.3203H329.612C330.897 19.3203 332.278 19.8999 333.186 20.7984L437.354 124.976C438.26 125.88 438.771 127.106 438.774 128.386V445.536C438.774 471.523 417.618 492.679 391.631 492.679ZM91.3868 28.9807C70.7136 28.9807 53.9045 45.7897 53.9045 66.463V445.536C53.9045 466.209 70.7136 483.018 91.3868 483.018H391.631C412.305 483.018 429.114 466.209 429.114 445.536V130.386L327.709 28.9807H91.3868Z" fill="black"/>
<path d="M188.039 67.6213H122.831C121.55 67.6213 120.322 67.1124 119.416 66.2066C118.51 65.3007 118.001 64.0722 118.001 62.7911C118.001 61.5101 118.51 60.2815 119.416 59.3757C120.322 58.4698 121.55 57.9609 122.831 57.9609H188.039C189.32 57.9609 190.549 58.4698 191.454 59.3757C192.36 60.2815 192.869 61.5101 192.869 62.7911C192.869 64.0722 192.36 65.3007 191.454 66.2066C190.549 67.1124 189.32 67.6213 188.039 67.6213ZM105.124 67.6213H87.7159C86.4349 67.6213 85.2063 67.1124 84.3005 66.2066C83.3946 65.3007 82.8857 64.0722 82.8857 62.7911C82.8857 61.5101 83.3946 60.2815 84.3005 59.3757C85.2063 58.4698 86.4349 57.9609 87.7159 57.9609H105.124C106.405 57.9609 107.634 58.4698 108.539 59.3757C109.445 60.2815 109.954 61.5101 109.954 62.7911C109.954 64.0722 109.445 65.3007 108.539 66.2066C107.634 67.1124 106.405 67.6213 105.124 67.6213ZM188.039 99.4523H163.482C162.201 99.4523 160.973 98.9434 160.067 98.0375C159.161 97.1317 158.652 95.9031 158.652 94.6221C158.652 93.341 159.161 92.1124 160.067 91.2066C160.973 90.3008 162.201 89.7919 163.482 89.7919H188.039C189.32 89.7919 190.549 90.3008 191.454 91.2066C192.36 92.1124 192.869 93.341 192.869 94.6221C192.869 95.9031 192.36 97.1317 191.454 98.0375C190.549 98.9434 189.32 99.4523 188.039 99.4523ZM145.775 99.4523H87.7159C86.4349 99.4523 85.2063 98.9434 84.3005 98.0375C83.3946 97.1317 82.8857 95.9031 82.8857 94.6221C82.8857 93.341 83.3946 92.1124 84.3005 91.2066C85.2063 90.3008 86.4349 89.7919 87.7159 89.7919H145.775C147.056 89.7919 148.284 90.3008 149.19 91.2066C150.096 92.1124 150.605 93.341 150.605 94.6221C150.605 95.9031 150.096 97.1317 149.19 98.0375C148.284 98.9434 147.056 99.4523 145.775 99.4523ZM137.873 131.283H87.7159C86.4349 131.283 85.2063 130.774 84.3005 129.868C83.3946 128.963 82.8857 127.734 82.8857 126.453C82.8857 125.172 83.3946 123.943 84.3005 123.038C85.2063 122.132 86.4349 121.623 87.7159 121.623H137.873C139.154 121.623 140.382 122.132 141.288 123.038C142.194 123.943 142.703 125.172 142.703 126.453C142.703 127.734 142.194 128.963 141.288 129.868C140.382 130.774 139.154 131.283 137.873 131.283ZM116.929 454.036H94.9322C93.6512 454.036 92.4226 453.528 91.5168 452.622C90.6109 451.716 90.102 450.487 90.102 449.206C90.102 447.925 90.6109 446.697 91.5168 445.791C92.4226 444.885 93.6512 444.376 94.9322 444.376H116.929C118.21 444.376 119.439 444.885 120.344 445.791C121.25 446.697 121.759 447.925 121.759 449.206C121.759 450.487 121.25 451.716 120.344 452.622C119.439 453.528 118.21 454.036 116.929 454.036ZM309.199 454.036H141.486C140.205 454.036 138.976 453.528 138.07 452.622C137.164 451.716 136.655 450.487 136.655 449.206C136.655 447.925 137.164 446.697 138.07 445.791C138.976 444.885 140.205 444.376 141.486 444.376H309.19C310.471 444.376 311.699 444.885 312.605 445.791C313.511 446.697 314.02 447.925 314.02 449.206C314.02 450.487 313.511 451.716 312.605 452.622C311.699 453.528 310.48 454.036 309.199 454.036ZM388.086 454.036H343.011C341.73 454.036 340.501 453.528 339.595 452.622C338.689 451.716 338.181 450.487 338.181 449.206C338.181 447.925 338.689 446.697 339.595 445.791C340.501 444.885 341.73 444.376 343.011 444.376H388.086C389.367 444.376 390.596 444.885 391.502 445.791C392.407 446.697 392.916 447.925 392.916 449.206C392.916 450.487 392.407 451.716 391.502 452.622C390.596 453.528 389.367 454.036 388.086 454.036ZM163.482 403.455H94.9322C93.6512 403.455 92.4226 402.946 91.5168 402.04C90.6109 401.134 90.102 399.906 90.102 398.624C90.102 397.343 90.6109 396.115 91.5168 395.209C92.4226 394.303 93.6512 393.794 94.9322 393.794H163.482C164.763 393.794 165.992 394.303 166.898 395.209C167.804 396.115 168.312 397.343 168.312 398.624C168.312 399.906 167.804 401.134 166.898 402.04C165.992 402.946 164.763 403.455 163.482 403.455ZM286.652 403.455H193.275C191.994 403.455 190.765 402.946 189.859 402.04C188.954 401.134 188.445 399.906 188.445 398.624C188.445 397.343 188.954 396.115 189.859 395.209C190.765 394.303 191.994 393.794 193.275 393.794H286.652C287.933 393.794 289.162 394.303 290.068 395.209C290.973 396.115 291.482 397.343 291.482 398.624C291.482 399.906 290.973 401.134 290.068 402.04C289.162 402.946 287.933 403.455 286.652 403.455ZM388.086 403.455H309.199C307.918 403.455 306.69 402.946 305.784 402.04C304.878 401.134 304.369 399.906 304.369 398.624C304.369 397.343 304.878 396.115 305.784 395.209C306.69 394.303 307.918 393.794 309.199 393.794H388.086C389.367 393.794 390.596 394.303 391.502 395.209C392.407 396.115 392.916 397.343 392.916 398.624C392.916 399.906 392.407 401.134 391.502 402.04C390.596 402.946 389.367 403.455 388.086 403.455Z" fill="black"/>
<path d="M235.133 348.034C291.154 348.034 336.567 302.62 336.567 246.6C336.567 190.58 291.154 145.166 235.133 145.166C179.113 145.166 133.699 190.58 133.699 246.6C133.699 302.62 179.113 348.034 235.133 348.034Z" fill="#5AE4A7"/>
<path d="M235.133 352.864C176.533 352.864 128.869 305.2 128.869 246.6C128.869 188 176.533 140.336 235.133 140.336C293.733 140.336 341.397 188.01 341.397 246.6C341.397 305.19 293.723 352.864 235.133 352.864ZM235.133 149.996C181.866 149.996 138.53 193.342 138.53 246.6C138.53 299.858 181.866 343.204 235.133 343.204C288.401 343.204 331.737 299.867 331.737 246.6C331.737 193.333 288.401 149.996 235.133 149.996Z" fill="black"/>
<path d="M433.943 128.386H355.405C341.204 128.386 329.708 116.89 329.708 102.593V24.1504L433.943 128.386Z" fill="#DDDDDD"/>
<path d="M433.944 133.217H355.405C347.299 133.194 339.533 129.957 333.81 124.216C328.088 118.476 324.875 110.7 324.878 102.594V24.1514C324.878 23.1968 325.161 22.2637 325.691 21.4699C326.221 20.676 326.975 20.0571 327.857 19.6912C328.738 19.3253 329.709 19.2288 330.645 19.414C331.582 19.5992 332.442 20.0577 333.118 20.7317L437.354 124.967C438.026 125.644 438.483 126.504 438.668 127.44C438.852 128.375 438.756 129.345 438.392 130.226C438.028 131.108 437.411 131.862 436.62 132.394C435.828 132.926 434.897 133.212 433.944 133.217ZM334.538 35.8115V102.594C334.538 114.148 343.899 123.557 355.405 123.557H422.284L334.538 35.8115Z" fill="black"/>
<path d="M216.412 289.87C212.712 289.87 209.002 288.459 206.172 285.619L186.049 265.506C184.642 264.175 183.515 262.576 182.737 260.803C181.958 259.029 181.543 257.118 181.515 255.181C181.488 253.245 181.849 251.322 182.577 249.527C183.305 247.733 184.386 246.102 185.755 244.732C187.125 243.363 188.755 242.281 190.549 241.552C192.343 240.823 194.266 240.461 196.202 240.487C198.139 240.514 200.051 240.928 201.824 241.706C203.598 242.484 205.198 243.61 206.529 245.016L216.412 254.889L263.728 207.582C265.059 206.175 266.658 205.049 268.432 204.27C270.205 203.491 272.116 203.076 274.053 203.048C275.99 203.021 277.912 203.382 279.707 204.11C281.502 204.839 283.132 205.919 284.502 207.289C285.872 208.658 286.953 210.288 287.682 212.082C288.412 213.877 288.774 215.799 288.747 217.736C288.721 219.672 288.306 221.584 287.528 223.358C286.75 225.131 285.625 226.731 284.218 228.062L226.661 285.629C223.831 288.459 220.121 289.879 216.421 289.879L216.412 289.87Z" fill="white"/>
</svg>
