<svg width="17" height="16" viewBox="0 0 17 16" fill="none" xmlns="http://www.w3.org/2000/svg">
<path d="M8.60938 7.64062C9.11719 8.10938 9.11719 8.92969 8.60938 9.39844L2.35938 15.6484C2.125 15.8828 1.8125 16 1.5 16C1.14844 16 0.835938 15.8828 0.601562 15.6484C0.09375 15.1797 0.09375 14.3594 0.601562 13.8906L5.95312 8.5L0.601562 3.14844C0.09375 2.67969 0.09375 1.85938 0.601562 1.39062C1.07031 0.882812 1.89062 0.882812 2.35938 1.39062L8.60938 7.64062ZM16.1094 7.64062C16.6172 8.10938 16.6172 8.92969 16.1094 9.39844L9.85938 15.6484C9.625 15.8828 9.3125 16 9 16C8.64844 16 8.33594 15.8828 8.10156 15.6484C7.59375 15.1797 7.59375 14.3594 8.10156 13.8906L13.4531 8.5L8.10156 3.14844C7.59375 2.67969 7.59375 1.85938 8.10156 1.39062C8.57031 0.882812 9.39062 0.882812 9.85938 1.39062L16.1094 7.64062Z" fill="white"/>
</svg>
