<svg width="27" height="27" viewBox="0 0 27 27" fill="none" xmlns="http://www.w3.org/2000/svg">
<path fill-rule="evenodd" clip-rule="evenodd" d="M10.9375 1.875C8.69384 1.875 6.875 3.69384 6.875 5.9375C6.875 8.18116 8.69384 10 10.9375 10C13.1812 10 15 8.18116 15 5.9375C15 3.69384 13.1812 1.875 10.9375 1.875ZM5 5.9375C5 2.65831 7.65831 0 10.9375 0C14.2167 0 16.875 2.65831 16.875 5.9375C16.875 9.21669 14.2167 11.875 10.9375 11.875C7.65831 11.875 5 9.21669 5 5.9375Z" fill="black"/>
<path fill-rule="evenodd" clip-rule="evenodd" d="M4.32622 17.1521C2.65189 18.0939 1.87517 19.2483 1.87517 20.3125C1.87517 21.9473 1.92556 22.8675 2.77965 23.563C3.24282 23.9402 4.01707 24.3083 5.34241 24.5766C6.66359 24.844 8.46989 25 10.9377 25C13.4055 25 15.2117 24.844 16.5329 24.5766C17.8583 24.3083 18.6325 23.9402 19.0957 23.563C19.9498 22.8675 20.0002 21.9473 20.0002 20.3125C20.0002 19.2483 19.2234 18.0939 17.5491 17.1521C15.9042 16.2268 13.5686 15.625 10.9377 15.625C8.30676 15.625 5.97116 16.2268 4.32622 17.1521ZM3.40698 15.5179C5.38132 14.4073 8.04573 13.75 10.9377 13.75C13.8296 13.75 16.494 14.4073 18.4684 15.5179C20.4133 16.612 21.8752 18.2701 21.8752 20.3125C21.8752 20.3546 21.8752 20.3971 21.8752 20.4399C21.8767 21.8923 21.8784 23.715 20.2797 25.0169C19.4928 25.6577 18.3921 26.1133 16.9049 26.4143C15.4136 26.7162 13.4699 26.875 10.9377 26.875C8.40545 26.875 6.46174 26.7162 4.97043 26.4143C3.48327 26.1133 2.38252 25.6577 1.59568 25.0169C-0.00309978 23.715 -0.00132735 21.8923 8.48467e-05 20.4399C0.000126475 20.3971 0.000167816 20.3546 0.000167816 20.3125C0.000167816 18.2701 1.46202 16.612 3.40698 15.5179Z" fill="black"/>
<path d="M22.1875 9.24197L21.5226 9.90295C21.6986 10.0799 21.9379 10.1795 22.1875 10.1795C22.4371 10.1795 22.6764 10.0799 22.8524 9.90295L22.1875 9.24197ZM21.6169 13.3654C21.0089 12.9013 20.4612 12.53 20.0199 12.0489C19.6109 11.603 19.375 11.1423 19.375 10.5622H17.5C17.5 11.7477 18.0178 12.64 18.6383 13.3164C19.2264 13.9577 19.984 14.4778 20.4794 14.8559L21.6169 13.3654ZM19.375 10.5622C19.375 10.0472 19.6748 9.63091 20.0591 9.46082C20.3919 9.31355 20.9217 9.29847 21.5226 9.90295L22.8524 8.581C21.7659 7.48814 20.4206 7.25042 19.3004 7.74622C18.2315 8.21921 17.5 9.31166 17.5 10.5622H19.375ZM20.4794 14.8559C20.6656 14.9979 20.907 15.1824 21.1616 15.3264C21.4165 15.4707 21.7695 15.625 22.1875 15.625V13.75C22.2305 13.75 22.2085 13.7644 22.0849 13.6945C21.9609 13.6244 21.8201 13.5204 21.6169 13.3654L20.4794 14.8559ZM23.8956 14.8559C24.391 14.4778 25.1486 13.9577 25.7367 13.3164C26.3572 12.64 26.875 11.7477 26.875 10.5622H25C25 11.1423 24.7641 11.603 24.3551 12.0489C23.9138 12.53 23.3661 12.9013 22.7581 13.3654L23.8956 14.8559ZM26.875 10.5622C26.875 9.31166 26.1435 8.21921 25.0746 7.74622C23.9544 7.25042 22.6091 7.48814 21.5226 8.581L22.8524 9.90295C23.4533 9.29847 23.9831 9.31355 24.3159 9.46082C24.7002 9.63091 25 10.0472 25 10.5622H26.875ZM22.7581 13.3654C22.5549 13.5204 22.4141 13.6244 22.2901 13.6945C22.1665 13.7644 22.1445 13.75 22.1875 13.75V15.625C22.6055 15.625 22.9585 15.4707 23.2134 15.3264C23.468 15.1824 23.7094 14.9979 23.8956 14.8559L22.7581 13.3654Z" fill="black"/>
</svg>
