<svg width="14" height="10" viewBox="0 0 14 10" fill="none" xmlns="http://www.w3.org/2000/svg">
<path d="M13.6929 1.58854C14 2.68229 14 5.02604 14 5.02604C14 5.02604 14 7.34375 13.6929 8.46354C13.5393 9.08854 13.053 9.55729 12.4644 9.71354C11.3638 10 7.0128 10 7.0128 10C7.0128 10 2.6362 10 1.53565 9.71354C0.946984 9.55729 0.460695 9.08854 0.30713 8.46354C0 7.34375 0 5.02604 0 5.02604C0 5.02604 0 2.68229 0.30713 1.58854C0.460695 0.963542 0.946984 0.46875 1.53565 0.3125C2.6362 0 7.0128 0 7.0128 0C7.0128 0 11.3638 0 12.4644 0.3125C13.053 0.46875 13.5393 0.963542 13.6929 1.58854ZM5.57952 7.13542L9.21389 5.02604L5.57952 2.91667V7.13542Z" fill="white"/>
</svg>
